<?xml version="1.0" encoding="UTF-8"?>
<!DOCTYPE svg PUBLIC "-//W3C//DTD SVG 1.1//EN" "http://www.w3.org/Graphics/SVG/1.1/DTD/svg11.dtd">
<!-- Creator: CorelDRAW -->
<svg xmlns="http://www.w3.org/2000/svg" xml:space="preserve" width="28.575mm" height="28.5748mm" version="1.1" style="shape-rendering:geometricPrecision; text-rendering:geometricPrecision; image-rendering:optimizeQuality; fill-rule:evenodd; clip-rule:evenodd"
viewBox="0 0 2857.5 2857.48"
 xmlns:xlink="http://www.w3.org/1999/xlink"
 xmlns:xodm="http://www.corel.com/coreldraw/odm/2003">
 <defs>
  <style type="text/css">
   <![CDATA[
    .fil2 {fill:#006838;fill-rule:nonzero}
    .fil1 {fill:#221E1F;fill-rule:nonzero}
    .fil4 {fill:#41B98E;fill-rule:nonzero}
    .fil3 {fill:#8AC43F;fill-rule:nonzero}
    .fil5 {fill:#F8C5D3;fill-rule:nonzero}
    .fil0 {fill:url(#id0);fill-rule:nonzero}
   ]]>
  </style>
  <linearGradient id="id0" gradientUnits="userSpaceOnUse" x1="-2.12" y1="1430.86" x2="2855.38" y2="1430.86">
   <stop offset="0" style="stop-opacity:1; stop-color:#8AC43F"/>
   <stop offset="1" style="stop-opacity:1; stop-color:#37B34A"/>
  </linearGradient>
 </defs>
 <g id="Слой_x0020_1">
  <metadata id="CorelCorpID_0Corel-Layer"/>
  <path class="fil0" d="M2855.38 1430.86c0,789.07 -639.67,1428.74 -1428.75,1428.74 -789.08,0 -1428.75,-639.67 -1428.75,-1428.74 0,-789.07 639.67,-1428.75 1428.75,-1428.75 789.08,0 1428.75,639.68 1428.75,1428.75z"/>
  <path class="fil1" d="M1451.33 2425.41c-233.24,0 -466.63,4.92 -699.67,-1.94 -129.26,-3.8 -252.33,-40.67 -339.06,-149.1 -84.17,-105.22 -107.02,-224.56 -70.84,-353.2 29.98,-106.6 61.91,-212.95 99.44,-317.07 64.52,-178.98 195.43,-279.14 383.2,-305.43 73.54,-10.3 147.18,-19.87 220.91,-28.68 19.24,-2.3 11.4,-11.48 7.54,-20.18 -45.23,-102 -90.51,-203.98 -135.93,-305.9 -91.22,-204.71 -29.09,-414.08 159.41,-536.25 115.4,-74.8 231.24,-148.95 346.21,-224.41 22.14,-14.53 40.18,-14.69 62.14,-0.33 117.7,76.99 236.42,152.44 353.98,229.64 179.91,118.14 241.35,329.84 153.97,526.99 -45.53,102.75 -90.87,205.59 -137.3,307.93 -8.06,17.77 -5.09,20.43 13.64,23.08 92.82,13.1 187.19,17.75 278.2,40.77 155.99,39.46 263.43,136.83 317.06,288.39 40.32,113.91 79.88,228.71 106.83,346.49 49.29,215.4 -83.82,414.84 -299.94,460.12 -64.61,13.53 -129.1,20.06 -195.19,19.61 -208.19,-1.43 -416.4,-0.53 -624.6,-0.53z"/>
  <path class="fil2" d="M1453.64 2350.26c-215.99,0 -431.98,-0.32 -647.98,0.48 -21.71,0.08 -29.06,-4 -28.97,-27.69 0.96,-250.43 0.58,-500.86 0.61,-751.27 0,-36.02 11.9,-48.2 47.21,-48.2 419.46,-0.04 838.93,-0.04 1258.39,0 35.22,0 47.16,12.26 47.17,48.27 0.02,250.42 -0.36,500.85 0.61,751.27 0.09,23.82 -7.47,27.69 -29.06,27.61 -215.99,-0.78 -431.98,-0.47 -647.98,-0.47z"/>
  <path class="fil3" d="M2205.24 1952.47c0,-95.33 0,-190.66 0,-285.99 -0.01,-34.44 0.23,-68.88 -0.07,-103.32 -0.57,-65.25 -49.32,-114.62 -114.44,-114.65 -425.05,-0.19 -850.1,-0.21 -1275.15,0.03 -63.72,0.03 -113.09,49.66 -113.33,113.3 -0.41,110.37 -0.12,220.73 -0.13,331.1 0,7.52 0,15.03 0,30.33 -27.68,-28.43 -50.81,-51.28 -72.79,-75.19 -9.69,-10.54 -15.52,-10.6 -26.01,-0.28 -40.87,40.21 -41.27,39.78 -0.41,80.61 28.79,28.77 57.26,57.87 86.51,86.17 9.09,8.8 13.06,17.77 12.99,30.64 -0.53,91.58 -0.7,183.18 0.07,274.75 0.15,17.99 -3.04,21.45 -22.06,18.18 -67.69,-11.65 -130.69,-33.1 -181.01,-81.51 -90.55,-87.1 -118.53,-193.61 -85.44,-313.28 29.53,-106.79 61.97,-213.08 99.54,-317.27 54.45,-151.03 166.16,-233.19 325.03,-253.04 93.82,-11.72 187.49,-24.64 281.1,-37.87 28.82,-4.07 40.14,-29.61 27.14,-58.99 -50.27,-113.57 -100.47,-227.17 -151.5,-340.4 -24.92,-55.31 -45.52,-111.19 -44.39,-173.22 2.1,-116 48.71,-210.43 143.68,-275.79 113.33,-78.01 230.61,-150.27 345.94,-225.38 10.06,-6.55 17.32,-6.17 27.31,0.34 113.33,73.88 227.87,145.94 340.3,221.17 137.86,92.26 185.59,266.56 117.48,421.57 -53.09,120.86 -107.19,241.28 -160.75,361.92 -20.25,45.6 -11.21,63.41 37.88,70.44 96.67,13.84 193.83,24.54 290.18,40.27 157.91,25.78 259.62,118.8 308.87,269.63 30.78,94.24 59.21,189.26 88.89,283.88 56,178.58 -43.22,372.8 -253.33,405.42 -32.21,5 -32.1,5.7 -32.1,-26.57 -0.01,-74.37 0.42,-148.74 -0.35,-223.09 -0.16,-15.41 4.52,-26.14 15.47,-36.73 37.12,-35.93 73.02,-73.11 110.02,-109.17 10.11,-9.85 13.01,-15.85 1.28,-27.77 -39.76,-40.38 -39.35,-41.09 -78.98,-1.07 -14.24,14.37 -27.51,29.71 -41.23,44.61 -2.07,-1.26 -4.14,-2.52 -6.21,-3.78z"/>
  <path class="fil1" d="M1190.64 1936.73c0,-46.96 0.21,-93.92 -0.09,-140.88 -0.15,-21.7 8.25,-36.81 28.38,-46.68 68.08,-33.39 136.05,-67.03 203.42,-101.81 21.42,-11.07 40.1,-11.83 61.75,-0.64 65.92,34.09 132.36,67.24 199.09,99.74 24.03,11.71 34.23,28.47 33.93,55.48 -1.03,90.78 -0.8,181.58 -0.12,272.37 0.17,23.81 -8.17,40.12 -29.79,50.77 -69.38,34.21 -138.67,68.62 -207.52,103.88 -18.66,9.55 -35,8.58 -53.13,-0.64 -68.29,-34.72 -136.8,-69.02 -205.54,-102.84 -21.46,-10.56 -31.11,-26.14 -30.64,-50.22 0.9,-46.16 0.26,-92.35 0.26,-138.53z"/>
  <path class="fil1" d="M1035.87 755.24c3.39,-84.25 35.71,-151.36 106.4,-192.82 95.66,-56.09 194.28,-107.11 291.56,-160.44 13.61,-7.47 26.77,-7.23 40.15,0.11 97.94,53.73 197.01,105.53 293.48,161.78 78.35,45.68 119.7,140.69 98.14,230.71 -23.04,96.24 -47.62,192.64 -83.63,285.06 -38.22,98.13 -106.1,172.13 -197.57,224.38 -35.96,20.54 -71.89,41.11 -107.82,61.69 -12.04,6.9 -24.66,11.36 -37.72,3.78 -64.8,-37.58 -133.57,-68.83 -190.85,-118.44 -70.54,-61.09 -117.75,-137.01 -142.27,-226.96 -22.16,-81.28 -49.74,-161.07 -66.7,-243.76 -1.87,-9.13 -2.37,-18.55 -3.17,-25.09z"/>
  <path class="fil4" d="M1265.79 1936.49c0,-35.18 0.77,-70.4 -0.36,-105.55 -0.49,-15.25 3.74,-23.76 18.13,-30.62 52.09,-24.85 103.61,-50.91 154.94,-77.3 10.82,-5.56 19.23,-6.1 30.26,-0.44 52.02,26.71 104.33,52.87 156.95,78.39 12.44,6.03 16.27,13.78 16.16,27.26 -0.63,72.72 -0.73,145.44 0.07,218.15 0.16,14.11 -5.03,20.93 -16.99,26.76 -52.55,25.65 -104.83,51.87 -156.93,78.42 -10,5.09 -18.09,5.08 -28.16,-0.07 -52.79,-26.97 -105.79,-53.54 -159.09,-79.5 -11.49,-5.6 -15.6,-12.46 -15.29,-25.25 0.89,-36.73 0.31,-73.5 0.31,-110.25z"/>
  <path class="fil5" d="M1795.93 758.33c-0.42,14.48 -6.13,34.69 -12.02,55 -19.57,67.41 -37.81,135.21 -58.1,202.4 -28.8,95.37 -87.14,168.35 -172.27,219.76 -28.06,16.95 -57.08,32.28 -85.24,49.06 -9.63,5.74 -17.06,7.28 -27.58,0.8 -29.22,-18 -59.69,-33.97 -89.09,-51.71 -85.27,-51.48 -142.73,-124.95 -170.75,-220.62 -22.58,-77.07 -45.88,-154.01 -65.19,-231.91 -15.25,-61.49 11.62,-123.92 66.02,-155.11 86.64,-49.67 175.04,-96.27 262.46,-144.58 8.33,-4.6 14.27,-2.59 21.43,1.32 85.55,46.83 171.57,92.84 256.67,140.47 45.96,25.73 73.71,76.67 73.66,135.12z"/>
  <path class="fil1" d="M1566.41 1949.37c0,2.34 0,4.69 0,7.03 0,61.99 0.04,61.66 -62.55,55.96 -10.71,-0.98 -12.89,-5.13 -12.71,-14.42 0.39,-20.31 0.39,-40.64 0.02,-60.95 -0.33,-17.94 -28.02,-35.86 -45.01,-29.42 -3.63,1.37 -6.87,3.77 -10.51,5.07 -13.77,4.92 -32.03,22.67 -38.68,16.02 -14.68,-14.7 -21.92,-37.02 -31.47,-56.59 -3.31,-6.8 3.07,-9.22 8.07,-11.67 21.69,-10.63 43.47,-21.07 64.91,-32.16 11.75,-6.08 22.74,-4.11 33.63,1.19 21.02,10.23 41.43,21.82 62.88,31.01 23.33,10.01 33.27,26.51 31.57,51.43 -0.84,12.44 -0.15,25 -0.15,37.5z"/>
  <path class="fil1" d="M1573.39 936.54c-50.9,0.44 -81.13,-10.89 -106.85,-33.07 -8.83,-7.61 -13.32,-10.59 -24.42,-1.48 -83.76,68.75 -198.99,31.83 -228.25,-72.56 -7.56,-27.01 -14.17,-54.29 -20.76,-81.56 -7.87,-32.55 13.92,-55.3 47.17,-49.68 61.55,10.4 123.27,19.89 184.6,31.49 43.09,8.16 83.41,-6.18 124.76,-11.8 40.18,-5.46 79.98,-13.71 120.05,-20.09 30.46,-4.85 52.11,18.3 45.14,48.17 -6.91,29.59 -13.97,59.19 -22.29,88.41 -17.51,61.51 -72.16,102.2 -119.15,102.17z"/>
  <path class="fil1" d="M1548.22 1124c-3.89,6.64 -9.01,4.5 -13.28,4.45 -53.72,-0.67 -107.45,-1.77 -161.18,-2.07 -11.72,-0.06 -13.53,-4.59 -13.66,-15.31 -0.77,-60.62 -1.09,-60.6 59.97,-59.63 35.05,0.56 70.17,2.7 105.12,1.03 21.79,-1.04 26.61,6.65 24.2,26.23 -1.88,15.33 -0.9,31.02 -1.17,45.3z"/>
 </g>
</svg>
