<?xml version="1.0" encoding="UTF-8"?>
<!DOCTYPE svg PUBLIC "-//W3C//DTD SVG 1.1//EN" "http://www.w3.org/Graphics/SVG/1.1/DTD/svg11.dtd">
<!-- Creator: CorelDRAW -->
<svg xmlns="http://www.w3.org/2000/svg" xml:space="preserve" width="28.575mm" height="28.5748mm" version="1.1" style="shape-rendering:geometricPrecision; text-rendering:geometricPrecision; image-rendering:optimizeQuality; fill-rule:evenodd; clip-rule:evenodd"
viewBox="0 0 2857.5 2857.48"
 xmlns:xlink="http://www.w3.org/1999/xlink"
 xmlns:xodm="http://www.corel.com/coreldraw/odm/2003">
 <defs>
  <style type="text/css">
   <![CDATA[
    .fil3 {fill:#009245;fill-rule:nonzero}
    .fil1 {fill:#221E1F;fill-rule:nonzero}
    .fil2 {fill:#8AC43F;fill-rule:nonzero}
    .fil6 {fill:#EC7380;fill-rule:nonzero}
    .fil5 {fill:#F28D9C;fill-rule:nonzero}
    .fil7 {fill:#F5AAB6;fill-rule:nonzero}
    .fil4 {fill:#F7C4D2;fill-rule:nonzero}
    .fil0 {fill:url(#id0);fill-rule:nonzero}
    .fil8 {fill:url(#id1);fill-rule:nonzero}
   ]]>
  </style>
  <linearGradient id="id0" gradientUnits="userSpaceOnUse" x1="-2.12" y1="1430.86" x2="2855.38" y2="1430.86">
   <stop offset="0" style="stop-opacity:1; stop-color:#8AC43F"/>
   <stop offset="1" style="stop-opacity:1; stop-color:#37B34A"/>
  </linearGradient>
  <radialGradient id="id1" gradientUnits="userSpaceOnUse" gradientTransform="matrix(0.957647 -0 -0 0.957647 81 91)" cx="1918.92" cy="2140.52" r="255.47" fx="1918.92" fy="2140.52">
   <stop offset="0" style="stop-opacity:1; stop-color:#37B34A"/>
   <stop offset="0.509804" style="stop-opacity:1; stop-color:#1B8D41"/>
   <stop offset="1" style="stop-opacity:1; stop-color:#006838"/>
  </radialGradient>
 </defs>
 <g id="Слой_x0020_1">
  <metadata id="CorelCorpID_0Corel-Layer"/>
  <path class="fil0" d="M2855.38 1430.86c0,789.07 -639.67,1428.74 -1428.75,1428.74 -789.07,0 -1428.75,-639.67 -1428.75,-1428.74 0,-789.07 639.68,-1428.75 1428.75,-1428.75 789.08,0 1428.75,639.68 1428.75,1428.75z"/>
  <path class="fil1" d="M1219.5 713.02c45.5,0 91.01,0.52 136.5,-0.28 16.86,-0.29 28.49,5.45 38.44,19.01 35.15,47.89 71.34,95.02 106.48,142.91 7.86,10.72 11.86,11.57 20.15,0.24 35.07,-47.95 71.31,-95.03 106.44,-142.94 9.92,-13.52 21.4,-19.32 38.3,-19.21 91,0.57 182.01,0.24 273.02,0.28 28.75,0.01 38.24,9.4 38.25,37.89 0.05,91.01 -0.33,182.02 0.32,273.02 0.13,17.76 -6.5,29.32 -20.4,39.6 -62.86,46.5 -124.99,94 -187.95,140.36 -10.93,8.05 -12.58,13.26 -3.44,23.63 10.79,12.24 20.65,25.48 29.49,39.21 7.5,11.64 12.88,13.24 22.48,1.85 19.14,-22.74 42.92,-36.91 74.07,-35.99 18.87,0.55 36.55,5.19 50.46,17.58 19.89,17.72 38.94,36.52 57.03,56.08 11.93,12.92 9.73,27.56 -4.33,41.94 -22.05,22.55 -43.92,45.35 -67.09,66.73 -10.62,9.8 -8.66,14.86 0.6,23.94 46.79,45.87 92.93,92.4 139.15,138.84 42.11,42.32 42.12,92.25 0.26,134.64 -8.96,9.07 -17.93,18.12 -27.06,27 -37.59,36.55 -89.51,36.92 -126.8,0.15 -47.94,-47.29 -95.69,-94.78 -142.71,-142.99 -10.21,-10.47 -15.7,-9.93 -25.22,0.28 -20.68,22.17 -42.54,43.25 -64.15,64.54 -18.19,17.91 -31.95,17.89 -50.09,0.12 -13.44,-13.17 -26.73,-26.48 -39.86,-39.94 -37.33,-38.26 -37.05,-89.74 0.55,-128.09 19.69,-20.08 19.68,-20.06 -2.16,-36.42 -23.29,-17.44 -46.75,-34.67 -69.7,-52.55 -6.94,-5.41 -11.73,-5.56 -18.78,-0.07 -26.32,20.46 -52.77,40.79 -79.98,60.02 -10.52,7.44 -10.48,11.92 -1.22,19.96 23.43,20.31 38.55,44.83 36.91,77.43 -0.88,17.53 -5.22,34.2 -16.65,47.13 -18.05,20.4 -37.24,39.92 -57.24,58.42 -12.83,11.87 -27.47,9.41 -41.88,-4.73 -22.51,-22.11 -45.09,-44.16 -66.77,-67.06 -8.53,-9.01 -13.47,-9.69 -22.62,-0.35 -46.69,47.68 -94.01,94.73 -141.36,141.76 -40.49,40.22 -91.43,40.02 -132.03,-0.13 -9.92,-9.82 -19.92,-19.56 -29.57,-29.63 -34.75,-36.25 -35.09,-88.34 0.11,-124.14 47.65,-48.44 95.64,-96.57 144.32,-143.96 10.72,-10.44 9.41,-15.91 -0.52,-25.23 -22.11,-20.75 -43.23,-42.56 -64.54,-64.15 -17.85,-18.09 -17.78,-31.87 0.05,-50.07 12.74,-13 25.67,-25.81 38.63,-38.59 39.1,-38.52 90.3,-38.73 129.44,-0.6 20.02,19.5 20.35,19.74 36.26,-2.46 10.48,-14.63 31.47,-28.91 28.59,-43.82 -2.51,-12.98 -25.15,-22.23 -39.16,-32.78 -53.28,-40.09 -106.55,-80.21 -160.11,-119.94 -12.28,-9.1 -17.73,-19.92 -17.65,-35.43 0.45,-92.22 0.18,-184.44 0.25,-276.66 0.02,-26.22 10.04,-36.27 36.16,-36.33 46.11,-0.1 92.22,-0.02 138.33,-0.02z"/>
  <path class="fil1" d="M1189.94 1819.9c55.79,0 111.57,0.39 167.35,-0.25 15.4,-0.18 26.32,5.22 36.09,16.72 54.17,63.74 108.77,127.11 163.14,190.68 17.88,20.9 17.73,32.04 -0.71,52.02 -112.2,121.66 -224.42,243.29 -336.71,364.86 -21.54,23.32 -35.47,23.17 -57.25,-0.41 -112.27,-121.59 -224.5,-243.21 -336.7,-364.86 -18,-19.52 -18.27,-30.59 -1.23,-50.53 54.75,-64.04 109.73,-127.88 164.26,-192.11 9.83,-11.58 20.92,-16.55 36.23,-16.37 55.17,0.64 110.36,0.25 165.53,0.25z"/>
  <path class="fil1" d="M1627.56 2141.1c0,-46.68 0.41,-93.37 -0.22,-140.05 -0.22,-16.6 6.45,-27.33 20.6,-35.14 83.65,-46.18 167.27,-92.43 250.62,-139.16 14.28,-8.01 26.64,-7.91 40.83,0.04 83.37,46.69 166.97,92.96 250.61,139.14 14.23,7.86 20.41,18.87 20.33,35.34 -0.42,92.76 -0.42,185.53 0,278.3 0.08,16.52 -6.34,27.4 -20.52,35.23 -83.65,46.19 -167.26,92.44 -250.61,139.14 -14.27,7.99 -26.63,7.8 -40.84,-0.17 -83.35,-46.71 -166.96,-92.97 -250.61,-139.17 -14.19,-7.83 -20.64,-18.71 -20.41,-35.26 0.63,-46.07 0.22,-92.16 0.22,-138.24z"/>
  <path class="fil1" d="M970.78 1319.13c-2.72,6.44 -9.21,7.71 -14.33,10.51 -94.45,51.71 -188.99,103.27 -283.5,154.87 -4.25,2.32 -8.58,4.52 -12.65,7.11 -6.17,3.93 -9.47,3.4 -13.9,-3.72 -25.95,-41.66 -26.2,-41.44 16.79,-64.88 88.74,-48.39 177.55,-96.65 266.03,-145.51 11.27,-6.23 17.32,-6.97 22.72,6.46 4.94,12.26 12.46,23.49 18.84,35.16z"/>
  <path class="fil1" d="M2081.38 1271.11c3.04,1.68 6.21,3.44 9.4,5.18 98.82,53.88 197.57,107.87 296.55,161.45 9.31,5.03 12.56,8.84 5.79,18.78 -8.13,11.93 -11.82,31.56 -22.35,35.89 -11.04,4.54 -25.18,-10.68 -37.78,-17.52 -89.36,-48.47 -178.37,-97.59 -267.94,-145.68 -11.91,-6.4 -14.93,-11.18 -6.95,-22.57 6.21,-8.87 10.69,-18.95 16.01,-28.45 1.69,-3.01 2.43,-7.07 7.27,-7.08z"/>
  <path class="fil1" d="M708.86 1176c-11.48,-10.78 -12.88,-27.02 -19.33,-40.5 -1.85,-3.86 -8.07,-9.21 -1.32,-14.17 2.83,-2.08 6.61,-2.87 9.98,-4.21 87.98,-35.13 176.05,-70.02 263.81,-105.69 11.42,-4.65 15.09,-2.37 19.45,8.47 16.38,40.7 16.78,40.5 -24.24,56.88 -77.82,31.07 -155.61,62.18 -233.42,93.28 -4.47,1.79 -8.95,3.56 -14.93,5.94z"/>
  <path class="fil1" d="M2049.11 1008.34c3.39,1.24 6.81,2.42 10.16,3.77 87.46,35.04 174.77,70.43 262.5,104.78 13.45,5.26 13.7,10.64 8.9,22.36 -15.71,38.36 -15.25,38.43 -53.36,23.18 -79.67,-31.9 -159.26,-64.02 -239.23,-95.17 -11.94,-4.66 -14.9,-9.01 -9.2,-20.38 5.13,-10.23 8.95,-21.12 13.21,-31.78 1.36,-3.41 2.07,-7.19 7.02,-6.76z"/>
  <path class="fil1" d="M2050.31 885.07c-9.81,0.15 -9.24,-8.28 -10.13,-12.95 -2.73,-14.17 -15.27,-26.33 -9.15,-42.07 0.72,-1.85 5.37,-2.23 8.24,-3.18 78.55,-26.01 157.19,-51.72 235.54,-78.3 11.28,-3.83 15.38,-2.15 19.11,9.08 13.91,41.9 14.27,41.73 -27.6,55.61 -68.2,22.61 -136.38,45.28 -204.56,67.92 -4.01,1.33 -8,2.71 -11.45,3.89z"/>
  <path class="fil1" d="M740.08 745.55c1.64,0.56 5.06,1.73 8.49,2.87 77.85,25.86 155.63,51.94 233.64,77.33 11.28,3.68 13.34,7.66 9.48,19.1 -13.95,41.37 -13.47,41.59 -53.85,28.18 -69.31,-23 -138.53,-46.28 -207.96,-68.89 -11.62,-3.79 -15.91,-7.99 -9.95,-20.21 4.72,-9.67 6.98,-20.53 10.56,-30.79 1.29,-3.69 1.36,-9 9.59,-7.59z"/>
  <path class="fil2" d="M1336.27 887.64c-0.01,34.54 -0.36,69.08 0.21,103.61 0.18,10.43 -3.24,13.31 -13.43,13.25 -69.07,-0.39 -138.15,-0.43 -207.22,0.03 -11.05,0.07 -12.8,-4.32 -12.76,-13.91 0.32,-68.46 0.43,-136.93 -0.08,-205.39 -0.09,-11.35 3.32,-14.27 14.37,-14.19 67.86,0.47 135.73,0.61 203.58,-0.09 13.5,-0.14 15.84,4.74 15.58,16.73 -0.73,33.3 -0.25,66.64 -0.25,99.96z"/>
  <path class="fil2" d="M1918.84 887.35c0,34.53 -0.32,69.07 0.2,103.6 0.15,10.03 -2.53,13.63 -13.12,13.57 -69.07,-0.43 -138.14,-0.43 -207.21,0 -10.64,0.06 -13.14,-3.62 -13.08,-13.6 0.36,-69.07 0.33,-138.14 0.03,-207.21 -0.04,-9.22 2.37,-12.68 12.17,-12.62 69.68,0.36 139.36,0.36 209.03,-0.01 9.84,-0.05 12.26,3.48 12.15,12.66 -0.42,34.53 -0.17,69.07 -0.17,103.61z"/>
  <path class="fil3" d="M1627.54 830.06c0,63.52 -0.11,123.4 0.14,183.28 0.03,7.74 -4.26,12.18 -9,16.92 -105.08,105.05 -210.27,209.99 -314.99,315.39 -9.64,9.71 -14.78,7.5 -23.06,-0.95 -22.76,-23.2 -23.2,-22.96 -3.93,-48.68 113.21,-151.04 226.47,-302.04 339.75,-453.03 2.54,-3.39 5.51,-6.45 11.09,-12.93z"/>
  <path class="fil3" d="M1861.5 1062.56c-78.49,58.77 -152.63,114.23 -226.71,169.77 -83.32,62.46 -166.82,124.68 -249.62,187.82 -12.62,9.63 -21.1,11.76 -30.8,-1.88 -2.77,-3.9 -6.4,-7.41 -10.25,-10.26 -10.3,-7.61 -7.64,-13.54 0.41,-21.52 61.14,-60.59 121.88,-121.58 182.75,-182.45 43.3,-43.3 86.81,-86.38 129.69,-130.08 8.38,-8.53 16.89,-11.74 28.66,-11.63 56.87,0.51 113.74,0.23 175.87,0.23z"/>
  <path class="fil3" d="M1045.02 1707.53c-7.27,0.27 -13.62,-0.9 -18.75,-6.07 -12.39,-12.46 -25.52,-24.25 -37.08,-37.42 -10.45,-11.91 -10.98,-26.53 0.04,-37.79 49.59,-50.65 100,-100.48 149.98,-150.74 5.29,-5.33 9.38,-6.22 15.05,-0.44 19.94,20.33 40.01,40.53 60.43,60.37 6.72,6.53 4.67,10.79 -0.96,16.39 -49.4,49.12 -98.66,98.39 -147.86,147.71 -6,6.02 -12.89,8.74 -20.85,7.99z"/>
  <path class="fil3" d="M2039.27 1643.56c0.91,9.25 -1.53,16.28 -7.68,22.26 -11.32,10.98 -22.09,22.54 -33.58,33.35 -12.76,12.01 -29.53,12.13 -42.07,-0.31 -49.14,-48.69 -97.86,-97.8 -146.97,-146.52 -6.38,-6.33 -7.91,-10.77 -0.65,-17.74 19.7,-18.91 38.98,-38.26 57.94,-57.91 6.59,-6.83 11.03,-6.84 17.75,-0.06 49.11,49.58 98.52,98.87 147.88,148.2 5.49,5.48 8.47,11.76 7.38,18.73z"/>
  <path class="fil2" d="M1398.93 1557.03c-0.22,11.33 -22.45,41.19 -31.33,43.94 -5.5,1.71 -7.68,-2.61 -10.46,-5.39 -87.55,-87.42 -174.96,-175 -262.65,-262.28 -7.03,-7 -6.64,-11.66 0.49,-17.53 4.2,-3.45 7.75,-7.68 11.65,-11.49 18.69,-18.28 32.98,-18.45 51.4,-0.07 61.84,61.67 123.56,123.47 185.32,185.22 15.01,15.01 29.87,30.17 45.04,45.03 6.85,6.71 11.35,14.13 10.54,22.57z"/>
  <path class="fil2" d="M1623.28 1557.57c-0.88,-10.14 4.47,-17.13 11.16,-23.8 77.28,-77.13 154.39,-154.42 231.73,-231.49 15.91,-15.86 31.08,-15.45 47.44,0.17 22.82,21.76 22.84,21.78 0.29,44.32 -78.91,78.92 -157.84,157.83 -236.76,236.74 -20.78,20.78 -20.67,20.68 -41.82,-0.83 -7.02,-7.14 -13.18,-14.34 -12.04,-25.11z"/>
  <path class="fil3" d="M1168.29 1062.57c58.62,0 117.24,0.21 175.86,-0.2 10.15,-0.08 15.61,5.91 20.81,12.35 6.55,8.11 -3.32,11.71 -6.52,16.17 -16.48,23.06 -33.91,45.44 -50.89,68.15 -3.36,4.49 -5.57,9 -12.47,3.79 -42.7,-32.26 -85.65,-64.19 -128.52,-96.24 0.58,-1.34 1.15,-2.68 1.73,-4.02z"/>
  <path class="fil3" d="M1398.36 834.49c23.94,31.7 47.82,63.45 71.89,95.06 4.09,5.38 2.78,9.36 -0.96,14.3 -19.68,25.99 -39.03,52.23 -58.59,78.32 -2.07,2.77 -4.18,7.09 -8.16,5.82 -3.93,-1.26 -6.98,-4.75 -7.7,-9.35 -0.27,-1.78 -0.29,-3.61 -0.29,-5.42 -0.01,-59.1 -0.01,-118.21 -0.01,-177.31 1.27,-0.48 2.55,-0.95 3.82,-1.42z"/>
  <path class="fil3" d="M1688.2 1399.57c-10.79,9.94 -20.3,20.14 -31.29,28.36 -7.84,5.86 -13.09,-3.68 -18.26,-7.38 -23.54,-16.84 -46.27,-34.8 -69.62,-51.91 -7.35,-5.38 -8.55,-9.44 -0.37,-14.77 5.54,-3.62 10.71,-7.8 16.07,-11.69 27.84,-20.22 27.85,-20.22 52.74,4.66 13.69,13.67 27.41,27.31 41.01,41.07 2.86,2.9 5.25,6.26 9.72,11.66z"/>
  <path class="fil3" d="M1765.34 1323.79c-10.72,9.53 -20.69,20.09 -32.36,28.21 -8.58,5.96 -12.21,-5.01 -16.83,-9.37 -16.28,-15.36 -31.47,-31.91 -47.85,-47.16 -8.12,-7.56 -7.2,-11.94 1.48,-17.66 13.1,-8.62 25.94,-25.48 38.39,-25.03 12.86,0.46 19.7,21.84 29.3,33.96 8.61,10.86 16.69,22.13 27.87,37.05z"/>
  <path class="fil4" d="M904.49 2023.77c27.42,-32.08 52.43,-61.37 77.46,-90.63 10.64,-12.44 22.72,-23.93 31.66,-37.48 10.09,-15.28 22.96,-18.51 39.92,-17.81 27.85,1.14 55.78,0.31 83.77,0.31 2.17,6.55 -2.81,10.34 -5.24,14.65 -22.65,40.05 -45.56,79.94 -68.48,119.82 -2.86,4.98 -4.25,11.28 -12.39,11.24 -47.63,-0.2 -95.27,-0.1 -146.7,-0.1z"/>
  <path class="fil4" d="M1240.75 1878.16c36.38,0 69.7,0.04 103.03,-0.05 5.01,-0.01 9.24,0.6 12.86,4.86 39.13,46.02 78.42,91.91 120.2,140.81 -51.19,0 -98.75,-0.1 -146.31,0.11 -5.98,0.03 -8.43,-3.21 -10.94,-7.62 -25.69,-45.14 -51.48,-90.21 -78.84,-138.11z"/>
  <path class="fil5" d="M1188.56 2325.6c-24.75,-80.4 -49.51,-160.8 -74.67,-242.54 51.4,0 101.34,0 153.42,0 -24.98,81.22 -49.8,161.92 -74.63,242.62 -1.37,-0.03 -2.75,-0.05 -4.12,-0.08z"/>
  <path class="fil6" d="M1118.41 2310.31c-69.21,-75.01 -138.42,-150.02 -210.55,-228.19 48.78,0 93.31,0.05 137.83,-0.07 5.23,-0.02 7.8,2.67 9.15,7.05 22.46,73.23 44.89,146.48 67.32,219.72 -1.25,0.5 -2.5,0.99 -3.75,1.49z"/>
  <path class="fil6" d="M1258.93 2309.37c7.43,-24.1 14.87,-48.2 22.29,-72.31 14.58,-47.38 29.2,-94.76 43.67,-142.18 1.95,-6.4 2.48,-12.97 11.96,-12.92 44.03,0.26 88.07,0.12 136.66,0.12 -72.37,78.41 -141.89,153.74 -211.4,229.07 -1.06,-0.59 -2.12,-1.18 -3.18,-1.78z"/>
  <path class="fil7" d="M1256.64 2023.11c-45.12,0 -87.31,0 -131.93,0 21.98,-38.47 43.06,-75.38 65.88,-115.32 22.69,39.61 43.8,76.47 66.05,115.32z"/>
  <path class="fil8" d="M2151.87 2140.93c0,38.21 -0.28,76.43 0.2,114.64 0.13,9.59 -2.55,15.11 -11.38,19.95 -70.62,38.71 -140.98,77.89 -211.18,117.34 -7.95,4.46 -13.68,3.99 -21.44,-0.37 -70.24,-39.4 -140.62,-78.56 -211.29,-117.18 -9.01,-4.93 -11.18,-10.62 -11.14,-20.05 0.31,-76.43 0.35,-152.87 -0.04,-229.3 -0.05,-10.29 2.85,-16.04 12.27,-21.2 69.59,-38.09 138.87,-76.74 208.01,-115.63 9.43,-5.31 16.64,-5.54 26.38,-0.03 67.99,38.44 136.25,76.4 204.76,113.9 10.81,5.91 15.55,12.21 15.21,25.11 -1,37.58 -0.35,75.21 -0.36,112.82z"/>
  <path class="fil1" d="M2093.61 2136.27c0,16.98 -0.36,33.96 0.15,50.92 0.26,8.58 -2.64,11.12 -11.32,11.61 -47.09,2.67 -49.99,2.69 -46.23,-42.95 3.48,-42.14 -5.72,-72.6 -48.81,-86.36 -2.79,-0.89 -5.08,-3.25 -7.7,-4.76 -20.91,-12.1 -41.55,-33.02 -62.87,-33.74 -21.33,-0.72 -43.41,18.63 -65.05,29.4 -36.68,18.27 -36.08,18.05 -54.98,-18.25 -6.3,-12.1 -4.89,-16.99 7.68,-22.79 32.36,-14.95 64.17,-31.15 95.72,-47.75 13.94,-7.34 26.04,-6.55 39.18,1.44 44.48,27.06 89.13,53.85 133.95,80.35 14.58,8.63 21.25,20.45 20.44,37.42 -0.72,15.12 -0.15,30.3 -0.16,45.46z"/>
 </g>
</svg>
