<?xml version="1.0" encoding="UTF-8"?>
<!DOCTYPE svg PUBLIC "-//W3C//DTD SVG 1.1//EN" "http://www.w3.org/Graphics/SVG/1.1/DTD/svg11.dtd">
<!-- Creator: CorelDRAW -->
<svg xmlns="http://www.w3.org/2000/svg" xml:space="preserve" width="28.575mm" height="28.5748mm" version="1.1" style="shape-rendering:geometricPrecision; text-rendering:geometricPrecision; image-rendering:optimizeQuality; fill-rule:evenodd; clip-rule:evenodd"
viewBox="0 0 2857.5 2857.48"
 xmlns:xlink="http://www.w3.org/1999/xlink"
 xmlns:xodm="http://www.corel.com/coreldraw/odm/2003">
 <defs>
  <style type="text/css">
   <![CDATA[
    .fil1 {fill:#4D241D;fill-rule:nonzero}
    .fil9 {fill:#4D251E;fill-rule:nonzero}
    .fil3 {fill:#4E251E;fill-rule:nonzero}
    .fil2 {fill:#4E271F;fill-rule:nonzero}
    .fil11 {fill:#5EC5CF;fill-rule:nonzero}
    .fil5 {fill:#6B4F5A;fill-rule:nonzero}
    .fil8 {fill:#9DBFE2;fill-rule:nonzero}
    .fil7 {fill:#E66353;fill-rule:nonzero}
    .fil10 {fill:#FFCD58;fill-rule:nonzero}
    .fil6 {fill:white;fill-rule:nonzero}
    .fil0 {fill:url(#id0);fill-rule:nonzero}
    .fil4 {fill:url(#id1);fill-rule:nonzero}
   ]]>
  </style>
  <linearGradient id="id0" gradientUnits="userSpaceOnUse" x1="-2.12" y1="1430.87" x2="2855.38" y2="1430.87">
   <stop offset="0" style="stop-opacity:1; stop-color:#8AC43F"/>
   <stop offset="1" style="stop-opacity:1; stop-color:#37B34A"/>
  </linearGradient>
  <radialGradient id="id1" gradientUnits="userSpaceOnUse" gradientTransform="matrix(0.809694 -0 -0 0.809698 234 276)" cx="1227.33" cy="1451.65" r="882.21" fx="1227.33" fy="1451.65">
   <stop offset="0" style="stop-opacity:1; stop-color:#37B34A"/>
   <stop offset="0.509804" style="stop-opacity:1; stop-color:#1B8D41"/>
   <stop offset="1" style="stop-opacity:1; stop-color:#006838"/>
  </radialGradient>
 </defs>
 <g id="Слой_x0020_1">
  <metadata id="CorelCorpID_0Corel-Layer"/>
  <path class="fil0" d="M2855.38 1430.87c0,789.07 -639.67,1428.74 -1428.75,1428.74 -789.08,0 -1428.75,-639.67 -1428.75,-1428.74 0,-789.07 639.67,-1428.75 1428.75,-1428.75 789.08,0 1428.75,639.68 1428.75,1428.75z"/>
  <path class="fil1" d="M1785.17 2252.37c-17.66,93.27 -83.68,149.1 -178.36,149.23 -253.18,0.32 -506.36,0.4 -759.53,-0.02 -108.19,-0.19 -180.64,-72.85 -180.67,-180.36 -0.14,-512.97 -0.13,-1025.93 0.01,-1538.9 0.02,-96.11 58.92,-164.33 153.9,-179.46 2.37,-0.72 4.73,-1.32 7.25,-1.39 264.27,-7.08 528.6,-5.34 792.9,-4.38 65.11,0.24 115.3,31.4 147.68,88.78 19.41,34.41 19.32,35.01 53.95,14.79 56.75,-33.11 116.82,-57.96 180.11,-75.44 16.79,-4.63 33.42,-8.3 50.89,-6.03 41.02,-3.89 81.72,-11.26 123.2,-9.95 30.76,0.97 43.45,12.97 43.74,43.84 0.7,73.2 -13.34,144.11 -33.95,213.96 1.64,12.86 -2.81,24.43 -7.52,35.98 -27.61,67.75 -62.12,131.69 -107.19,189.44 -11.64,14.91 -13.93,28.12 -6.04,45.42 12,26.32 22.42,53.41 34.59,79.65 11.28,24.31 5.06,43.26 -13.59,59.84 -35.88,31.9 -74.82,60.03 -112.12,90.17 -20.58,16.63 -41.55,32.81 -62.45,49.06 -17.05,13.25 -35.7,18.26 -55.3,6.78 -19.47,-11.41 -20.55,-30.29 -17.5,-50.24 2.75,-17.98 4.79,-36.08 6.44,-54.18 1.06,-11.66 -3.4,-16.87 -16.38,-12.09 -28.07,10.34 -38.26,23.16 -37.89,53.49 3.11,257.97 -7.39,515.83 -5,773.8 0.68,72.72 2.1,145.49 -1.17,218.21z"/>
  <path class="fil1" d="M1977.84 1551.73c2.77,-2.97 5.13,-6.53 8.38,-8.82 20.91,-14.73 24.1,-27.9 1.39,-45.69 -16.29,-12.76 -16.16,-31.88 -2.6,-48.11 12.97,-15.53 31.93,-14.44 50.14,0.52 7.33,6.01 11.2,16.44 22.25,17.77 10.46,-2.45 15.42,-11.78 21.98,-18.62 15.59,-16.27 31.92,-14.4 47.79,-2.45 15.17,11.44 18.41,35.55 2.98,47.9 -24.74,19.81 -21.02,32.83 0.53,52.02 14.51,12.93 12.32,32.06 -2.35,46.21 -13.9,13.4 -29.66,12.41 -44.98,1.63 -3.33,-2.35 -6.59,-5.26 -8.85,-8.6 -12.75,-18.89 -23.54,-13.57 -35.71,1.24 -12.15,14.78 -27.93,20.48 -46.17,10.61 -19.15,-10.36 -21.51,-26.62 -14.78,-45.61z"/>
  <path class="fil2" d="M2244.47 1812.57c-21.61,-0.59 -38.98,-19.33 -37.74,-40.73 1.2,-20.71 18.53,-36.5 39.55,-36.04 21.73,0.47 39.47,19.27 38.1,40.35 -1.32,20.18 -19.7,36.96 -39.91,36.42z"/>
  <path class="fil3" d="M2147.79 1978.35c-0.48,22.28 -18.03,38.67 -40.16,37.5 -21.04,-1.12 -36.38,-17.83 -35.99,-39.19 0.41,-22.37 17.51,-38.2 40.16,-37.19 21.12,0.95 36.46,17.51 35.99,38.88z"/>
  <path class="fil4" d="M1717.4 682.13c-37.59,-16.08 -73.46,-30.55 -108.54,-46.74 -22.42,-10.35 -38.71,-6.33 -53.83,13.2 -45.54,58.87 -91.76,117.22 -138.2,175.38 -11.43,14.32 -16.86,29.2 -6.85,45.34 9.94,16.03 25.55,18.09 43.6,14.59 21.03,-4.09 42.54,-5.74 63.84,-8.42 7.61,-0.95 16,-1.15 20.34,5.72 4.23,6.69 -3.52,11.6 -6.27,17.09 -4.05,8.11 -8.65,15.97 -13.3,23.76 -10.5,17.62 -19.69,35.3 -2.54,56.33 -113.84,11.32 -173.76,81.21 -207.33,179.3 -7.68,22.46 -17.09,27.82 -40.46,24.95 -161.8,-19.83 -329.3,109.01 -357.65,273.48 -32.21,186.9 81.65,355.7 267.21,396.15 196.46,42.83 394.76,-109.78 403.72,-310.74 1.59,-35.65 1.04,-71.23 -9.93,-105.61 -4.48,-14.03 0.02,-19.5 13.42,-25.03 51.66,-21.28 100.62,-46.92 129.52,-98.84 8.26,5.66 4.49,12.79 4.5,18.43 0.23,295.55 0.25,591.1 0.16,886.65 -0.02,73.57 -41.57,116.38 -114.6,116.48 -251.67,0.34 -503.35,0.3 -755.02,0 -72.86,-0.08 -113.93,-41.28 -113.95,-113.53 -0.11,-511.63 -0.1,-1023.25 -0.01,-1534.88 0.02,-73.36 41.9,-115.09 115.24,-115.42 45.54,-0.21 91.08,0.38 136.6,-0.29 13.74,-0.2 21.54,2.8 27.74,16.91 15.01,34.12 43.08,51.35 80.46,51.48 86.92,0.32 173.85,0.16 260.78,0.09 38.52,-0.03 66.81,-17.47 82.59,-52.4 5.23,-11.57 10.56,-16.29 23.4,-16.11 49.66,0.71 99.36,-0.48 149.01,0.54 63.89,1.31 107.86,46.94 106.35,112.14z"/>
  <path class="fil5" d="M1242.68 1790.45c-147.39,1.46 -270.61,-124.44 -269.57,-271.48 1.05,-147.44 122.36,-273.83 278.81,-270.26 18.22,0.41 22.51,4.4 17.34,23.28 -16.3,59.52 -30.86,119.53 -45.03,179.61 -8.8,37.29 11.91,57.41 49.77,49.54 70.14,-14.59 139.88,-31.07 207.9,-53.58 19.31,-6.39 24,-0.02 27.29,16.71 25.09,127.44 -38.74,253.56 -163.03,305.9 -32.94,13.87 -67.35,21.85 -103.48,20.28z"/>
  <path class="fil6" d="M2134.73 578.45c22.89,-5.71 17.03,12.24 15.69,25.26 -18.15,176.55 -99.45,320.8 -226.82,441.16 -37.34,35.29 -78.89,65.1 -122.33,92.57 -15.05,9.52 -24.07,8.27 -35.24,-4.93 -14.38,-17 -30.6,-32.45 -46.23,-48.39 -9.59,-9.79 -11.26,-17.56 0.79,-28.02 18.07,-15.69 34.4,-33.41 51.15,-50.58 19.41,-19.9 21.07,-38.93 5.22,-54.11 -15.39,-14.76 -32.86,-13.04 -52.05,5.67 -17.17,16.75 -35.03,32.98 -50.54,51.18 -10.41,12.2 -18.41,10.29 -28,1.26 -19.25,-18.12 -38.03,-36.75 -57.59,-54.53 -11.71,-10.63 -1.28,-18.48 3.09,-25.65 75.82,-124.28 178.12,-220.26 308.38,-285.8 72.98,-36.71 150.41,-58.08 234.48,-65.09z"/>
  <path class="fil7" d="M1680.71 1194.59c-3.56,56.14 -24.39,104.2 -76.56,132 -90.33,48.13 -189.65,70.48 -287.85,95.58 -10.49,2.69 -15.61,-0.52 -12.55,-12.81 23.67,-95.25 46.72,-190.83 90.68,-279.31 29.83,-60.04 95.39,-93.37 157.82,-83.73 64.9,10.02 112.15,55.07 125.51,120.15 1.81,8.82 1.94,17.99 2.95,28.12z"/>
  <path class="fil8" d="M1926.34 1209.71c-4.8,-10.75 -1.09,-21.36 -7.26,-29.54 -16.94,-22.47 -10.36,-37.49 12.11,-53 23.41,-16.16 43.36,-37.35 66.38,-57.72 8.08,18.31 15.5,35.56 23.32,52.62 3.35,7.3 1.43,12.34 -4.6,17.05 -29.74,23.19 -59.36,46.55 -89.95,70.59z"/>
  <path class="fil8" d="M1517.29 806.1c26.27,-33.21 48.94,-61.35 70.93,-90.02 6.59,-8.59 12.62,-11.15 22.82,-6.06 15.29,7.62 31.24,13.91 48.34,21.39 -25.25,29.71 -49.49,58.13 -73.58,86.66 -6.8,8.05 -12.95,3.12 -19.61,-0.12 -13.85,-6.73 -27.58,-14 -48.9,-11.85z"/>
  <path class="fil1" d="M2346.14 2062.77c-65.86,-0.23 -118.95,51.58 -119.55,116.68 -0.62,66.01 52.74,120.65 118.41,121.27 64.08,0.6 118.89,-53.35 119.53,-117.64 0.67,-66.89 -51.67,-120.08 -118.39,-120.31zm-1.12 169.1l0 0c-27.1,-0.37 -49.61,-23.7 -49.41,-51.19 0.2,-28.17 21.97,-49.32 50.51,-49.05 28.44,0.26 49.7,21.86 49.37,50.16 -0.32,27.5 -23.44,50.45 -50.47,50.08z"/>
  <path class="fil9" d="M1227.81 2232.52c58.69,0 117.38,-0.06 176.06,0.03 27.85,0.05 42.56,11.77 42.51,33.42 -0.05,21.75 -14.24,33.41 -42.64,33.46 -118.21,0.21 -236.41,0.2 -354.61,0 -27.88,-0.05 -42.98,-12.41 -42.83,-33.57 0.16,-21.07 15.67,-33.26 42.96,-33.31 59.52,-0.09 119.03,-0.03 178.55,-0.03z"/>
  <path class="fil1" d="M1921.79 942.6c-74.92,0.17 -135.63,-60.08 -135.66,-134.64 -0.03,-74.86 60.1,-134.6 135.59,-134.72 75.16,-0.11 135.71,60.01 135.65,134.68 -0.06,74.66 -60.31,134.52 -135.58,134.68z"/>
  <path class="fil10" d="M1654.24 1164.56c-3.75,28.59 -13.59,55.97 -42.96,71.42 -47.9,25.19 -100.46,35.85 -152.6,47.61 -14.69,3.32 -19.97,-3.79 -16.75,-17.7 11.32,-48.91 21.86,-98.13 43.84,-143.71 19.04,-39.47 58.62,-57.47 100.61,-47.03 38.59,9.59 68.32,47.83 67.86,89.41z"/>
  <path class="fil11" d="M1988.71 809.04c-0.54,37.75 -31.34,67.72 -68.43,66.57 -37.14,-1.15 -67.18,-32.37 -66.51,-69.14 0.68,-37.47 31.07,-66.53 69.01,-65.98 38.2,0.54 66.48,29.95 65.93,68.55z"/>
 </g>
</svg>
