<?xml version="1.0" encoding="UTF-8"?>
<!DOCTYPE svg PUBLIC "-//W3C//DTD SVG 1.1//EN" "http://www.w3.org/Graphics/SVG/1.1/DTD/svg11.dtd">
<!-- Creator: CorelDRAW -->
<svg xmlns="http://www.w3.org/2000/svg" xml:space="preserve" width="28.575mm" height="28.5748mm" version="1.1" style="shape-rendering:geometricPrecision; text-rendering:geometricPrecision; image-rendering:optimizeQuality; fill-rule:evenodd; clip-rule:evenodd"
viewBox="0 0 2857.5 2857.48"
 xmlns:xlink="http://www.w3.org/1999/xlink"
 xmlns:xodm="http://www.corel.com/coreldraw/odm/2003">
 <defs>
  <style type="text/css">
   <![CDATA[
    .fil1 {fill:#006838;fill-rule:nonzero}
    .fil0 {fill:url(#id0);fill-rule:nonzero}
   ]]>
  </style>
  <linearGradient id="id0" gradientUnits="userSpaceOnUse" x1="-7.13" y1="1429.28" x2="2850.37" y2="1429.28">
   <stop offset="0" style="stop-opacity:1; stop-color:#8AC43F"/>
   <stop offset="1" style="stop-opacity:1; stop-color:#37B34A"/>
  </linearGradient>
 </defs>
 <g id="Слой_x0020_1">
  <metadata id="CorelCorpID_0Corel-Layer"/>
  <path class="fil0" d="M2850.37 1429.28c0,789.07 -639.67,1428.74 -1428.75,1428.74 -789.07,0 -1428.75,-639.67 -1428.75,-1428.74 0,-789.07 639.68,-1428.75 1428.75,-1428.75 789.08,0 1428.75,639.68 1428.75,1428.75z"/>
  <path class="fil1" d="M2238.66 1228.43c-4.77,26.59 -9.06,53.27 -14.49,79.72 -2.95,14.4 -7.81,28.42 -11.82,42.6 -6,4.71 -13.05,5.69 -20.37,5.69 -126.46,0.11 -252.93,0.31 -379.39,-0.11 -3.6,-0.01 -7.19,-0.41 -10.65,-1.28 -10.43,-2.66 -12.22,-12.17 -15.74,-20.24 -32.26,-73.97 -104.06,-121.96 -184.43,-119.34 -75.75,2.46 -133.16,37.72 -170.29,104.63 -4.8,8.66 -6.82,19.58 -17.8,23.73 -50.38,3.72 -100.8,1.14 -151.18,1.47 -10.05,0.14 -19.68,4.21 -29.86,3.3 -73.92,-6.53 -148,-1.17 -221.98,-3.1 -10.32,-0.27 -22.16,2.37 -28.39,-10.02 4.28,-10.65 14.76,-8.83 22.87,-10.49 75.15,-15.43 150.75,-28.5 226.06,-43.1 22.64,-4.39 22.84,-5.01 23.75,-27.69 0.56,-14.02 -4.14,-28.89 5.28,-41.86 18.09,-6.29 36.37,-4.55 54.68,-1.32 8.28,4.82 7.21,13.2 7.33,20.78 0.39,22.76 -0.12,45.54 0.28,68.3 0.14,7.86 -2.58,18.38 9.69,19.91 11.9,1.48 24.54,2.86 30.67,-11.67 5.14,-12.17 11.15,-23.85 18.39,-34.94 53.13,-81.47 128.33,-123.15 225.47,-125.41 5.4,-0.13 10.78,-0.19 16.09,-1.41 5.18,-0.58 9.91,1.03 14.59,2.9 36.72,6.48 72.17,16.25 104.32,36.3 45.44,28.34 80.21,66.2 102.46,114.75 6.79,14.8 15.44,20.32 31.43,20.21 86.17,-0.55 172.35,-0.58 258.52,0.02 16.3,0.11 23.41,-6.08 26.89,-21.58 9.34,-41.63 14.7,-83.58 15.02,-126.23 0.07,-9.44 -1.68,-19.27 4.01,-27.95 6.61,-5.16 14.54,-4.73 22.06,-4.28 14.82,0.89 26.5,-3.3 33.29,-17.37 1.09,0.21 2.16,0.45 3.24,0.74 0,34.78 0,69.56 0,104.34z"/>
  <path class="fil1" d="M2235.23 2059.96c0.41,-11.7 -5.84,-15.36 -16.73,-14.87 -12.4,0.55 -24.84,0.13 -37.26,0.14 -6.5,-6.15 -4.49,-14.37 -5.18,-21.88 -1.89,-20.59 -9.21,-38.17 -27.47,-49.57 -15.08,-9.4 -19.8,-6.9 -20.13,10.57 -0.26,13.69 0.18,27.4 -0.17,41.09 -0.19,6.94 1.24,14.54 -5.37,19.82 -18.8,0 -37.59,0 -56.38,0 -9.73,-12.02 -4.32,-26.17 -5.21,-39.34 -1.19,-17.73 -2.46,-18.57 -18.57,-10.11 -17.26,9.07 -33.98,18.09 -30.67,42.13 0.39,2.83 -1.57,5.64 -4.32,7.32 -18.77,1.59 -37.98,-3.86 -56.38,3.6 -10.75,-2.34 -18.09,11.54 -29.47,6.2 -4.8,-9.76 -14.18,-9.9 -22.79,-9.66 -19.58,0.53 -39.31,-2.7 -58.76,2.93 -5.28,1.53 -12.11,2.26 -16.02,-4.36 81.52,-44.02 161.98,-90.18 244.89,-131.38 66.16,-32.88 143.13,5.05 164.84,76.21 1.36,4.45 0.26,9.8 4.58,13.23 0,19.19 0,38.38 0,57.57 -0.99,1.56 -2.14,1.61 -3.43,0.36z"/>
  <path class="fil1" d="M2235.42 1123.35c2.26,16.83 -7.12,22.25 -21.92,22.3 -10.79,0.04 -21.57,0.01 -32.36,0.02 -8.97,-7.41 -8.1,-18.01 -9.26,-28.05 -5.57,-48.42 -14.15,-95.91 -37.36,-139.79 -7.63,-14.42 -16.86,-21.1 -33.56,-21.08 -251.73,0.3 -503.46,0.18 -755.19,0.3 -20.88,0.01 -22.41,1.77 -22.6,22.61 -0.21,23.37 0.07,46.75 -0.12,70.12 -0.07,8.33 0.73,16.9 -4.35,24.37 -8.29,6.49 -18.15,4.62 -27.56,5.12 -22.01,1.16 -44.12,-2.3 -66.06,1.46 -8.52,1.91 -16.57,-0.44 -24.72,-2.6 -110.64,-29.29 -221.22,-58.81 -331.75,-88.55 -10.49,-2.83 -21.12,-4.11 -31.98,-4.11 -69.52,0.01 -139.04,-0.05 -208.56,0.05 -22.36,0.03 -33.68,19.78 -23.16,40.02 4.22,8.14 12.12,6.68 19,6.73 35.36,0.3 70.72,0.12 106.08,0.14 19.78,0.01 39.64,1.22 59.31,-0.23 52.95,-3.91 103.77,5.82 153.76,21.81 7.96,2.55 18.71,2.34 19.31,14.86 -5.76,9.82 -15.61,10.39 -25.15,10.42 -126.6,0.38 -253.21,0.35 -379.81,0.04 -5.98,-0.01 -11.97,-0.53 -17.16,-4.11 -6.9,-8.1 -5.49,-18.01 -5.53,-27.42 -0.2,-50.82 0.02,-101.63 -0.14,-152.45 -0.07,-23.29 -1.3,-24.76 -24.13,-24.54 -58.21,0.57 -50.33,-7.69 -50.71,50.04 -0.41,63.37 -0.02,126.75 -0.16,190.12 -0.02,9.46 1.23,19.25 -4.45,27.89 -19.43,7.6 -38.83,8.73 -58.16,-0.38 -0.19,-100.51 -0.38,-201.03 -0.56,-301.54 0,-4.19 -0.03,-8.45 3.54,-11.58 47.81,3.21 95.68,1.3 143.52,1.49 126.82,0.48 253.65,-0.39 380.48,0.46 7.23,0.05 14.36,-0.11 21.01,-3.39 16.02,-1.42 30.64,4.89 45.5,9.03 79.71,22.21 159.51,44.08 238.95,67.24 15.06,4.39 28.43,6.52 41.8,-5.36 9.45,-8.39 22.7,-6.33 34.65,-6.34 121.13,-0.06 242.25,-0.03 363.37,-0.03 127.12,0 254.24,0 381.36,0 4.79,0 9.59,0.01 14.39,-0.04 9.41,-0.1 10.22,-4.19 5.22,-11.06 -5.65,-7.75 -11.48,-15.37 -17.48,-22.86 -4.08,-5.11 -9.08,-9.73 -9.41,-16.94 5.05,-9.52 14.36,-9.35 23.16,-9.83 14.17,-0.76 28.39,0.27 42.57,-0.94 70.97,86.57 123.07,181.18 126.38,296.58z"/>
  <path class="fil1" d="M2109.04 826.77c-3.01,9.28 -10.84,5.38 -16.74,5.73 -15.98,0.95 -32.23,-1.91 -47.86,3.71 -8.95,0.95 -12.04,-6.91 -16.61,-11.78 -60.45,-64.45 -129.95,-117.03 -208.81,-156.63 -84.87,-42.62 -175.26,-67.34 -269.46,-78.62 -49.41,-5.92 -98.97,-9.1 -148.69,-7.2 -174.47,6.7 -329.91,60.45 -456.18,185.74 -9.37,9.29 -17.64,19.55 -26.79,29.04 -10.55,10.95 -9.15,14.71 4.89,19.56 8.24,2.84 18.17,1.83 24.1,10.18 -4.24,6.73 -10.96,6.16 -17.6,6.16 -171.23,-0.03 -342.46,0 -513.69,-0.12 -6,0 -13.96,2.8 -15.65,-7.2 4.12,-18.05 19.07,-17.6 32.38,-17.67 74.94,-0.4 149.88,-0.19 224.82,-0.19 52.76,0 105.53,-0.26 158.28,0.21 11.24,0.1 17.66,-3.41 24.79,-12.86 99.02,-131.19 228.73,-217.13 389.05,-252.66 201.13,-44.57 397.52,-26.16 586.67,56.89 98.93,43.43 184.45,106.36 257.92,185.53 12.44,13.4 23.49,28.09 35.18,42.18z"/>
  <path class="fil1" d="M1922 1947.86c-83.56,44.19 -167.03,88.53 -250.7,132.53 -100.1,52.63 -200.34,105 -300.55,157.43 -34.92,18.26 -53.84,6.91 -53.24,-32.95 1.23,-82.49 -39.55,-139.93 -108.18,-179.38 -33.43,-19.22 -71.65,-17.32 -108.86,-14.7 -73.71,5.2 -145.52,20.95 -216.56,40.59 -28.65,7.91 -57.44,10.41 -87.02,4.95 -54.86,-10.13 -91.63,-50.94 -94.44,-106.6 -0.57,-11.34 0.23,-22.74 0.39,-34.12 18.04,-15.52 37.11,-9.7 56.23,-2.72 6.65,6.78 5.19,15.52 5.42,23.76 1.09,38.03 18.95,57.09 56.77,60.35 13.31,1.15 26.21,-0.94 39.07,-4.28 65.52,-16.99 131.15,-33.53 198.69,-40.63 40.5,-4.26 80.85,-7.48 121.61,-0.86 43.77,7.1 79.66,28.47 111.98,57.16 42.37,37.63 72.34,82.9 82.85,139.44 2.82,15.16 10.71,10.72 19.35,6.5 43.03,-21.08 85.14,-43.95 127.52,-66.27 60.38,-31.8 120.88,-63.4 181.33,-95.09 32.87,-17.23 65.22,-35.52 98.74,-51.51 8.11,-3.87 15.99,-8.36 25.46,-7.86 26.18,-2.25 52.41,-2.38 78.59,-1.23 8.56,0.37 21.72,-0.96 15.55,15.49z"/>
  <path class="fil1" d="M982.9 1334.27c5.1,6.98 12.6,5.7 19.71,5.7 52.09,0.01 104.18,0.09 156.27,-0.03 25.67,-0.06 51.34,-0.54 76.76,4.02 -3.16,9.45 -12.03,9.02 -19.24,10.35 -108.44,19.95 -216.81,40.32 -325.14,60.86 -10.68,2.03 -21.45,2.09 -32.24,2.09 -72.51,0 -145.03,-0.01 -217.55,0 -39.9,0.01 -42.09,2.02 -45.93,41.79 -7.49,10.54 -18.88,8.19 -29.26,8.45 -10.03,0.24 -20.13,1.22 -30.13,-0.75 -6.67,-14.37 -5.17,-29.54 -1.67,-43.88 2.48,-10.16 -0.65,-11.07 -8.9,-11.01 -31.15,0.21 -62.31,0.17 -93.47,0.05 -25.69,-0.1 -35.6,-10.12 -35.67,-36.02 -0.04,-13.17 0.35,-26.34 0.55,-39.51 18.31,-9.4 37.1,-6.46 55.93,-2.25 7.02,11.83 17.15,17.24 31.03,15.06 1.74,-0.27 3.58,-0.2 5.34,-0.01 24.22,2.55 47.32,3.2 51.81,-29.25 19.02,-5.21 37.98,-6.02 56.86,0.57 1.01,2.16 0.24,-0.85 1.14,1.37 11,26.98 11,26.98 41.31,26.98 46.66,0 93.36,-1.09 139.98,0.28 59.52,1.74 118.27,-2.59 176.38,-15.66 8.59,-1.93 17.59,-4.69 26.13,0.8z"/>
  <path class="fil1" d="M1797.63 1350.76c138.24,0 276.48,0 414.72,-0.01 -10.86,35.52 -24.69,69.74 -44.43,101.37 -20.6,1.95 -41.2,3.72 -61.45,-2.64 -5.58,-13.5 4.45,-22.58 9.93,-32.5 15.52,-28.11 15.49,-28.59 -15.6,-28.59 -68.96,0 -137.92,-0.05 -206.87,0.03 -23.06,0.03 -24.37,1.1 -24.14,24.51 0.3,31.02 -5.87,60.76 -16.36,89.74 -2.62,7.24 -4.52,15.14 -12.76,18.63 -19.28,-4.33 -39.54,-0.72 -58.58,-7.11 -5.23,-6.39 -1.74,-12.57 0.87,-18.46 18.5,-41.84 24.22,-84.91 13.44,-129.8 -1.19,-4.96 -3.58,-10.48 1.23,-15.17z"/>
  <path class="fil1" d="M2083.87 1565.87c-24.99,33.51 -52.5,65.1 -75.08,100.45 -20.02,31.32 -36.36,64.44 -50.57,98.69 -18.03,-4.95 -36.91,-0.09 -54.96,-4.75 -9.28,-8.29 -2.22,-16.88 0.52,-24.5 16.37,-45.47 41.08,-86.53 68.51,-126.02 9.57,-13.77 19.92,-27.03 30.24,-40.26 5.49,-7.04 10.78,-14.6 20.58,-16.42 15.36,0.89 30.76,0.68 46.08,1.69 6.34,0.41 17.23,-2.25 14.68,11.12z"/>
  <path class="fil1" d="M1901.58 1757.41c14.34,-0.02 28.68,-0.05 43.02,-0.04 5.94,0 12.48,-0.96 13.62,7.64 -4.04,19.74 -9.64,39.25 -10.08,59.56 -0.45,20.47 6.59,37.69 20.4,53.34 18.39,20.85 14.39,38.86 -9.93,51.97 -11.96,6.44 -24.39,12.01 -36.61,17.98 0.75,-9.04 -4.41,-11.02 -12.16,-10.64 -24.79,1.22 -49.74,-2.44 -74.41,2.08 -4.68,0.86 -7.96,-1.26 -11.74,-2.71 2.87,-10.73 12.87,-13.34 20.94,-17.84 12.99,-7.24 26.38,-13.81 39.86,-20.1 10.52,-4.91 13.52,-11.65 9.58,-22.89 -11.6,-33.05 -11.55,-66.58 -2.12,-100.15 1.87,-6.68 2.18,-14.39 9.63,-18.2z"/>
  <path class="fil1" d="M669.51 1728.54c9.17,-21.61 5.13,-38.02 -13.57,-54.55 -13.1,-11.58 -13.58,-31.23 -6.47,-48.55 7.19,-17.5 15.07,-34.71 22.65,-52.04 16.8,-8.71 34.3,-5.1 51.7,-2.99 10.95,6.26 7.96,16.17 6.21,25.42 -2.14,11.37 -8.96,20.74 -14.31,30.73 -5.83,10.91 -2.78,18.12 8.92,22.07 7.99,2.7 16.44,3.08 24.51,5.24 15.29,4.08 25.49,13.47 27.65,29.38 2.1,15.45 -5.33,26.69 -19.03,33.29 -11.27,5.43 -20.44,14.71 -32.96,17.82 -18.37,-2.52 -37.72,4.11 -55.3,-5.82z"/>
  <path class="fil1" d="M669.51 1728.54c19.75,1.31 39.8,-2.95 59.3,3.14 31.11,10.68 44.8,35.76 52.31,65.07 3.39,13.22 5.16,27.41 1.14,40.8 -7.81,26.03 -10.26,53.64 -23.06,78.18 -18.78,-4.76 -37.56,-6.55 -56.36,-0.12 0.27,-25.9 7.18,-50.61 14.45,-75.1 8.99,-30.29 5.09,-43.56 -20.87,-60.3 -18.96,-12.23 -30.55,-27.87 -26.91,-51.67z"/>
  <path class="fil1" d="M453.37 1336.37c-18.8,0 -37.59,0.01 -56.38,0.01 0,-65.97 -0.01,-131.94 -0.02,-197.92 18.81,0.01 37.61,0.01 56.42,0.01 7.28,6.42 6.22,15.23 6.26,23.45 0.24,50.34 0.24,100.68 0,151.02 -0.04,8.21 1.02,17.03 -6.28,23.43z"/>
  <path class="fil1" d="M727.68 1573.84c-18.52,-0.14 -37.04,-0.29 -55.56,-0.44 -1.5,-10.18 -9.33,-12.38 -17.63,-15.15 -37.15,-12.42 -72.62,-28 -99.6,-57.9 -8.76,-9.71 -17.34,-19.7 -18.73,-33.6 7.09,-7.97 16.46,-3.31 24.77,-4.37 10.82,-1.38 22.26,2.8 32.53,-3.63 9.56,1.19 14.93,9.26 22.47,13.8 19.99,12.03 41.24,20.93 63.29,28.45 24.28,8.28 42.45,23.74 50.22,49.13 2.42,7.91 4.55,16.25 -1.76,23.71z"/>
  <path class="fil1" d="M2083.87 1565.87c-2.44,-9.64 -10.35,-5.91 -16.23,-6.3 -15.92,-1.04 -32.15,2.2 -47.7,-3.64 -2.53,-13.2 9.35,-18.6 15.66,-25.99 20.63,-24.16 41.24,-48.22 58.96,-74.66 2.46,-3.68 4.7,-8.8 10.94,-7.37 20.77,1.97 42.1,-4.39 62.42,4.21 -22.31,42.13 -49.74,80.49 -84.05,113.75z"/>
  <path class="fil1" d="M2222.45 2040.73c-13.52,-1.04 -27.18,-2.71 -40.45,2.13 -8.33,5.91 -8.63,15.22 -10.16,23.95 -6.68,38.15 -18.72,74.12 -43.09,107.65 -0.5,-37.44 0.06,-72.58 -0.37,-107.7 -0.1,-8.64 1.86,-18.28 -7.17,-24.41 -18.75,-3.59 -37.46,-5.56 -55.88,1.8 -5.93,7.87 -4.73,17.12 -4.75,25.99 -0.17,49.12 -1.16,98.28 0.41,147.36 0.71,22.38 -7.57,35.98 -26.61,45.88 -18.54,9.64 -20.51,8.99 -20.54,-12.57 -0.08,-59.91 0.07,-119.82 -0.12,-179.72 -0.03,-9.41 1.64,-19.37 -5.4,-27.46 -20.3,-4.86 -40.59,-9.54 -59.41,4.63 -4.63,8.99 -3.55,18.73 -3.57,28.24 -0.15,66.49 0.22,132.98 -0.25,199.47 -0.12,17.35 -8.7,22.54 -30.83,22.64 -16.91,0.07 -15.45,-11.34 -15.47,-22.15 -0.09,-52.11 0.63,-104.24 -0.33,-156.33 -0.46,-25.14 -1.41,-49.23 24.76,-63.41 0.29,-16.11 -12.67,-15.17 -22.47,-16.2 -25.56,-2.67 -51.01,0.44 -76.4,3.45 -45.96,24.43 -92,48.74 -137.88,73.34 -84.92,45.54 -169.87,91.02 -254.56,136.99 -37.15,20.16 -44.04,66.98 -14.11,93.09 6.56,5.73 14.67,9.68 22.06,14.46 164.32,0 328.64,0 492.95,0 20.99,-3.94 42.5,-3.14 63.37,-9.47 60.59,-18.37 113.06,-49.89 155.19,-96.85 50.88,-56.72 86.03,-120.95 85.4,-200.02 0.09,-9.6 -5.69,-14.11 -14.32,-14.78zm-630.51 263.42l0 0c-41.19,0.11 -82.38,0.05 -123.57,0.05 -0.43,-1.11 -0.86,-2.23 -1.29,-3.34 45.21,-24.32 90.42,-48.63 138.21,-74.33 0,25.18 -0.28,47.07 0.12,68.95 0.2,11.05 -7.39,8.65 -13.47,8.67zm117.3 0.27l0 0c-46.23,2.28 -46.22,2.52 -46.25,-42.74 0,-4.79 0,-9.59 0,-14.39 -0.03,-57.14 -0.03,-57.14 57.46,-81.38 0,43.46 -0.2,85.4 0.17,127.33 0.08,8.76 -3.03,10.77 -11.38,11.18zm116.89 0.03l0 0c-47.99,4.32 -47.97,4.59 -47.99,-42.54 -0.02,-38.25 0.32,-76.5 -0.31,-114.73 -0.17,-10.32 2.87,-16.26 12.35,-20.67 14.51,-6.74 28.35,-14.92 45.41,-24.07 0,65.58 -0.06,128.26 0.09,190.93 0.02,6.97 -1.21,10.33 -9.55,11.08z"/>
  <path class="fil1" d="M1623.23 1149.34c-13.83,-4.18 -17.72,-14.95 -17.78,-27.76 -0.16,-36.56 -0.31,-73.12 0.03,-109.68 0.19,-20.97 11.21,-31.65 32.72,-31.67 147.45,-0.14 294.89,0.02 442.34,-0.28 10.63,-0.02 14.36,2.41 14.5,13.86 0.57,43.92 1.03,43.92 -43.59,43.92 -122.87,0 -245.75,0.23 -368.62,-0.3 -14.69,-0.07 -21,1.94 -20.37,19.07 1.41,38.77 0.34,38.8 39.87,38.8 134.26,0 268.52,0.26 402.78,-0.35 15.01,-0.07 19.14,3.83 18.77,18.81 -0.95,39.08 -0.21,39.06 -39.48,39.1 -149.83,0.15 -299.67,0.32 -449.5,0.49 -3.89,-1.33 -7.78,-2.67 -11.67,-4.01z"/>
  <path class="fil1" d="M1260.55 1214.04c1.01,-9.54 -5.44,-11.89 -12.85,-13.86 -129.43,-34.4 -258.83,-68.93 -388.29,-103.24 -5.67,-1.5 -11.84,-1.56 -17.78,-1.56 -74.96,-0.1 -149.92,0.55 -224.87,-0.54 -16.9,-0.25 -19.77,5.36 -19.19,20.29 0.99,25.73 -0.08,51.54 -0.28,77.31 -19.32,9.07 -38.71,7.89 -58.17,0.44 -4.78,-6.81 -4.43,-14.71 -4.49,-22.43 -0.18,-24.47 -0.26,-48.94 0.05,-73.4 0.1,-8.19 -1.05,-16.97 6.23,-23.35 131.58,0.01 263.17,0.02 394.75,-0.01 9.45,0 19.47,1.52 25.92,-8.14 9.48,-6 18.76,-1.21 27.67,1.22 80.26,21.82 160.81,42.56 241.15,64.1 7.65,2.05 18.79,11.91 23.96,-3.4 6,-17.78 -0.4,-34.14 -13.65,-39.1 -6.27,-2.36 -14.81,-1.42 -16.85,-10.61 6.82,-7.39 15.69,-3.69 23.58,-3.86 23.15,-0.53 46.33,-0.2 69.49,-0.2 0,46.78 0,93.56 -0.01,140.34 -18.79,0 -37.58,0 -56.37,0z"/>
  <path class="fil1" d="M1416.98 1339.95c-21.17,56.43 -15.52,111.44 8.72,165.48 -8.35,7.64 -18.73,5 -28.35,5.15 -9.95,0.16 -19.74,1.38 -29.57,2.37 -17.55,-35.76 -23.17,-73.94 -21.02,-113.17 0.76,-13.95 -3.31,-18.34 -16.63,-16.79 -7.69,0.89 -15.56,0.16 -23.35,0.16 -39.38,0 -44.49,-4.59 -47.75,-42.83 52.65,-0.12 105.3,-0.24 157.95,-0.37z"/>
  <path class="fil1" d="M540.91 1321.99c0.01,-43.19 0.01,-86.37 0.01,-129.55 18.79,0 37.58,0 56.37,0 0,43.18 0.01,86.36 0.01,129.55 -18.8,0 -37.59,0 -56.39,0z"/>
  <path class="fil1" d="M1367.78 1512.95c1.14,-8.62 7.75,-7.4 13.55,-7.44 14.79,-0.08 29.58,-0.06 44.37,-0.08 27.45,46.25 64.6,80.73 116.76,97.57 86.13,27.8 177.84,-3.04 229.28,-77.46 3.03,-4.39 6.2,-8.69 9.3,-13.03 19.52,2.65 40.57,-5.87 58.57,7.98 -39.51,85.49 -107.29,132.88 -198.99,149.09 -108.8,19.22 -238.42,-54.78 -272.84,-156.63z"/>
  <path class="fil1" d="M2123.52 1268.21c0,28.59 0,28.59 -31.21,28.59 -26.38,0 -26.38,0 -26.37,-31.65 0.01,-25.95 0.01,-26.18 35.67,-25.84 25.87,0.25 21.41,-4.36 21.91,28.9z"/>
  <path class="fil1" d="M1979.51 1296.8c-28.72,0 -28.72,0 -28.71,-31.55 0.01,-26.03 0.01,-26.03 34.26,-26.02 23.33,0.01 23.58,0.01 23.23,35.16 -0.26,26.43 4.52,21.91 -28.78,22.41z"/>
  <path class="fil1" d="M1450.98 1336.45c29.34,-64.04 101.49,-104.64 171.85,-96.69 74.41,8.4 137.81,65.43 151.36,136.23 0.44,2.31 0.11,4.77 0.13,7.16 -17.29,9.57 -35.53,5.04 -53.55,3.62 -8.85,-3.43 -10.96,-12.01 -14.51,-19.43 -34.26,-71.64 -121.6,-88.09 -179.66,-33.82 -5.18,4.84 -9.67,10.73 -17.31,12.12 -12.91,-0.12 -25.81,-0.46 -38.7,-0.75 -7.48,-0.17 -15.66,0.35 -19.61,-8.44z"/>
  <path class="fil1" d="M1756.99 1492.01c-35.18,64.06 -90.09,95.99 -162.32,91.83 -68.84,-3.97 -118.19,-40.63 -147.68,-103.26 -3.78,-8.04 -7.52,-16.18 -7.48,-25.39 17.26,-9.99 35.64,-4.76 53.69,-3.99 8.87,2.61 12.76,10.39 17.45,17.25 42.26,61.8 113.5,71.8 171,23.95 5.49,-4.57 10.2,-10.26 17.5,-12.32 14.13,-2.57 28.37,-2.04 42.51,-0.91 7.51,0.6 15.94,1.77 15.33,12.84z"/>
  <path class="fil1" d="M1497 1455.13c-19.16,0.02 -38.33,0.04 -57.49,0.06 -13.22,-41.23 -7.55,-80.63 11.47,-118.74 10.99,6.24 22.98,2.59 34.51,3.5 8.63,0.68 17.69,-1.91 25.64,3.61 3.4,5.61 0.17,10.42 -2.23,15.02 -13.46,25.89 -17.62,52.85 -10.36,81.39 1.28,5.04 3.03,10.53 -1.54,15.16z"/>
  <path class="fil1" d="M1756.99 1492.01c-3.05,-7.41 -9.25,-8.25 -16.22,-8.16 -14.89,0.19 -29.79,0.08 -44.69,0.09 -3.21,-5.89 0.7,-10.5 3.26,-14.9 13.38,-23.07 19.11,-47.61 15.53,-74.2 -0.55,-4.1 -1.18,-8.43 2.56,-11.69 18.97,0 37.93,0 56.89,0 8.85,38.62 2.06,74.74 -17.33,108.86z"/>
 </g>
</svg>
