<?xml version="1.0" encoding="UTF-8"?>
<!DOCTYPE svg PUBLIC "-//W3C//DTD SVG 1.1//EN" "http://www.w3.org/Graphics/SVG/1.1/DTD/svg11.dtd">
<!-- Creator: CorelDRAW -->
<svg xmlns="http://www.w3.org/2000/svg" xml:space="preserve" width="54.4994mm" height="16.7996mm" version="1.1" style="shape-rendering:geometricPrecision; text-rendering:geometricPrecision; image-rendering:optimizeQuality; fill-rule:evenodd; clip-rule:evenodd"
viewBox="0 0 5449.94 1679.96"
 xmlns:xlink="http://www.w3.org/1999/xlink"
 xmlns:xodm="http://www.corel.com/coreldraw/odm/2003">
 <defs>
  <style type="text/css">
   <![CDATA[
    .fil9 {fill:url(#id0);fill-rule:nonzero}
    .fil5 {fill:url(#id1);fill-rule:nonzero}
    .fil4 {fill:url(#id2);fill-rule:nonzero}
    .fil3 {fill:url(#id3);fill-rule:nonzero}
    .fil1 {fill:url(#id4);fill-rule:nonzero}
    .fil2 {fill:url(#id5);fill-rule:nonzero}
    .fil8 {fill:url(#id6);fill-rule:nonzero}
    .fil6 {fill:url(#id7);fill-rule:nonzero}
    .fil7 {fill:url(#id8);fill-rule:nonzero}
    .fil10 {fill:url(#id9);fill-rule:nonzero}
    .fil0 {fill:url(#id10);fill-rule:nonzero}
    .fil11 {fill:url(#id11);fill-rule:nonzero}
   ]]>
  </style>
  <linearGradient id="id0" gradientUnits="userSpaceOnUse" x1="3769.26" y1="1576.46" x2="3255.24" y2="1576.46">
   <stop offset="0" style="stop-opacity:1; stop-color:#8AC43F"/>
   <stop offset="1" style="stop-opacity:1; stop-color:#37B34A"/>
  </linearGradient>
  <linearGradient id="id1" gradientUnits="objectBoundingBox" xlink:href="#id0" x1="71.1092%" y1="0%" x2="28.9039%" y2="110.15%">
  </linearGradient>
  <linearGradient id="id2" gradientUnits="userSpaceOnUse" xlink:href="#id0" x1="5290.77" y1="842.1" x2="5383.94" y2="842.1">
  </linearGradient>
  <linearGradient id="id3" gradientUnits="userSpaceOnUse" xlink:href="#id0" x1="154.93" y1="842.1" x2="61.76" y2="842.1">
  </linearGradient>
  <linearGradient id="id4" gradientUnits="userSpaceOnUse" x1="2722.85" y1="24.68" x2="2722.85" y2="1643.72">
   <stop offset="0" style="stop-opacity:1; stop-color:#FFD777"/>
   <stop offset="1" style="stop-opacity:1; stop-color:#F8A54E"/>
  </linearGradient>
  <linearGradient id="id5" gradientUnits="userSpaceOnUse" xlink:href="#id4" x1="2723.06" y1="1485.38" x2="2723.06" y2="117.05">
  </linearGradient>
  <linearGradient id="id6" gradientUnits="userSpaceOnUse" xlink:href="#id0" x1="1671.73" y1="1576.46" x2="2185.76" y2="1576.46">
  </linearGradient>
  <linearGradient id="id7" gradientUnits="objectBoundingBox" xlink:href="#id0" x1="71.0991%" y1="0%" x2="28.8956%" y2="110.154%">
  </linearGradient>
  <linearGradient id="id8" gradientUnits="userSpaceOnUse" xlink:href="#id0" x1="2659.71" y1="1539.99" x2="2634.12" y2="1612.94">
  </linearGradient>
  <radialGradient id="id9" gradientUnits="userSpaceOnUse" gradientTransform="matrix(0.99988 -0 -0 0.999759 0 0)" cx="174.41" cy="141.4" r="41.56" fx="174.41" fy="141.4">
   <stop offset="0" style="stop-opacity:1; stop-color:#37B34A"/>
   <stop offset="0.509804" style="stop-opacity:1; stop-color:#1B8D41"/>
   <stop offset="1" style="stop-opacity:1; stop-color:#006838"/>
  </radialGradient>
  <radialGradient id="id10" gradientUnits="userSpaceOnUse" gradientTransform="matrix(0.74083 -0 -0 0.740835 706 218)" xlink:href="#id9" cx="2723.06" cy="842.1" r="2687.93" fx="2723.06" fy="842.1">
  </radialGradient>
  <radialGradient id="id11" gradientUnits="objectBoundingBox" xlink:href="#id9" cx="50%" cy="50%" r="50%" fx="50%" fy="50%">
  </radialGradient>
 </defs>
 <g id="Слой_x0020_1">
  <metadata id="CorelCorpID_0Corel-Layer"/>
  <path class="fil0" d="M5270.04 1682.07l-5093.95 0c-77.85,0 -140.96,-63.1 -140.96,-140.95l0 -1398.04c0,-77.85 63.11,-140.96 140.96,-140.96l5093.95 0c77.85,0 140.95,63.11 140.95,140.96l0 1398.04c0,77.85 -63.1,140.95 -140.95,140.95z"/>
  <path class="fil1" d="M5410.99 473.69l0 -329.89c0,-0.41 -0.11,-0.79 -0.12,-1.2 0.01,-0.41 0.12,-0.79 0.12,-1.2 0,-76.93 -62.36,-139.29 -139.28,-139.29 -0.41,0 -0.79,0.12 -1.2,0.13 -0.41,-0.01 -0.78,-0.13 -1.19,-0.13l-5092.51 0c-0.41,0 -0.79,0.12 -1.2,0.13 -0.41,-0.01 -0.79,-0.13 -1.2,-0.13 -76.92,0 -139.28,62.36 -139.28,139.29 0,0.41 0.11,0.78 0.12,1.19 -0.01,0.41 -0.12,0.79 -0.12,1.21l0 329.94c-23.09,18.08 -37.25,45.4 -37.25,75.02l0 589.2c0,28.98 14.13,55.76 37.25,72.9l0 329.53c0,0.42 0.11,0.8 0.12,1.21 -0.01,0.41 -0.12,0.78 -0.12,1.19 0,76.93 62.36,139.29 139.28,139.29 0.41,0 0.79,-0.12 1.2,-0.13 0.41,0.01 0.79,0.13 1.2,0.13l1368.25 0 2353.03 0 1371.23 0c0.41,0 0.78,-0.12 1.19,-0.13 0.41,0.01 0.79,0.13 1.2,0.13 76.92,0 139.28,-62.36 139.28,-139.29 0,-0.41 -0.11,-0.79 -0.12,-1.2 0.01,-0.41 0.12,-0.79 0.12,-1.2l0 -330.3c22.83,-18.08 36.83,-45.22 36.83,-74.66l0 -589.2c0,-28.8 -13.98,-55.39 -36.83,-72.54zm-1580.24 1102.55l0 0 -16.57 -26.05c-22.76,-35.77 -62.21,-57.43 -104.6,-57.43l-1979.87 0c-39.99,0 -77.21,20.44 -98.67,54.18l-18.65 29.3 -1303.19 0c2.67,-10.77 4.5,-21.86 4.5,-33.45 0,-76.93 -62.36,-139.29 -139.29,-139.29 -11.59,0 -22.68,1.83 -33.45,4.5l0 -1131.81c10.77,2.67 21.86,4.5 33.45,4.5 76.93,0 139.29,-62.36 139.29,-139.29 0,-11.59 -1.83,-22.68 -4.5,-33.45l4827.72 0c-2.67,10.77 -4.5,21.86 -4.5,33.45 0,76.93 62.36,139.29 139.29,139.29 11.59,0 22.68,-1.83 33.45,-4.5l0 1131.81c-10.77,-2.67 -21.86,-4.5 -33.45,-4.5 -76.93,0 -139.29,62.36 -139.29,139.29 0,11.59 1.83,22.68 4.5,33.45l-1306.17 0z"/>
  <path class="fil2" d="M5136.92 107.95l0.18 0 -0.18 0zm0 0c-2.67,10.77 -4.5,21.86 -4.5,33.45 0,76.93 62.36,139.29 139.29,139.29 11.59,0 22.68,-1.83 33.45,-4.5l0 1131.81c-10.77,-2.67 -21.86,-4.5 -33.45,-4.5 -76.93,0 -139.29,62.36 -139.29,139.29 0,11.59 1.83,22.68 4.5,33.45l-1306.17 0 -16.57 -26.05c-22.76,-35.77 -62.21,-57.43 -104.6,-57.43l-1979.87 0c-39.99,0 -77.21,20.44 -98.67,54.18l-18.65 29.3 -1303.19 0c2.67,-10.77 4.5,-21.86 4.5,-33.45 0,-76.93 -62.36,-139.29 -139.29,-139.29 -11.59,0 -22.68,1.83 -33.45,4.5l0 -1131.81c10.77,2.67 21.86,4.5 33.45,4.5 76.93,0 139.29,-62.36 139.29,-139.29 0,-11.59 -1.83,-22.68 -4.5,-33.45l4827.72 0zm0.18 -17.64l0 0 -0.18 0 -4827.72 0c-5.43,0 -10.55,2.5 -13.89,6.77 -3.34,4.27 -4.54,9.85 -3.23,15.11 2.72,10.96 3.98,20.24 3.98,29.21 0,67.08 -54.57,121.65 -121.65,121.65 -8.96,0 -18.24,-1.27 -29.2,-3.98 -1.41,-0.35 -2.83,-0.52 -4.25,-0.52 -3.9,0 -7.73,1.29 -10.87,3.74 -4.27,3.35 -6.77,8.47 -6.77,13.9l0 1131.81c0,5.43 2.5,10.55 6.77,13.9 3.14,2.45 6.97,3.74 10.87,3.74 1.42,0 2.84,-0.17 4.25,-0.52 10.96,-2.71 20.24,-3.98 29.2,-3.98 67.08,0 121.65,54.57 121.65,121.65 0,8.97 -1.26,18.25 -3.98,29.21 -1.31,5.26 -0.11,10.84 3.23,15.11 3.34,4.27 8.46,6.77 13.89,6.77l1303.19 0c6.03,0 11.64,-3.08 14.88,-8.17l18.65 -29.3c18.33,-28.81 49.65,-46.01 83.79,-46.01l1979.87 0c36.55,0 70.09,18.42 89.72,49.26l16.57 26.05c3.24,5.09 8.85,8.17 14.88,8.17l1306.17 0c5.43,0 10.55,-2.5 13.89,-6.77 3.35,-4.27 4.54,-9.85 3.24,-15.11 -2.72,-10.96 -3.99,-20.24 -3.99,-29.21 0,-67.08 54.57,-121.65 121.65,-121.65 8.97,0 18.25,1.27 29.2,3.98 1.41,0.35 2.83,0.52 4.25,0.52 3.9,0 7.73,-1.29 10.87,-3.74 4.27,-3.35 6.77,-8.47 6.77,-13.9l0 -1131.81c0,-5.43 -2.5,-10.55 -6.77,-13.9 -3.14,-2.45 -6.97,-3.74 -10.87,-3.74 -1.42,0 -2.84,0.17 -4.25,0.52 -10.95,2.71 -20.23,3.98 -29.2,3.98 -67.08,0 -121.65,-54.57 -121.65,-121.65 0,-8.54 1.15,-17.37 3.61,-27.66 0.63,-1.81 0.98,-3.76 0.98,-5.79 0,-9.74 -7.81,-17.64 -17.55,-17.64zm-0.18 35.28l0 0 0.18 0 -0.18 0z"/>
  <path class="fil3" d="M61.76 1115.12c0,17.5 10.28,34.01 27.81,44.66l50.92 30.93 0 -76.77c8.62,-5.23 14.44,-14.61 14.44,-25.43 0,-10.82 -5.82,-20.2 -14.44,-25.43l0 -47.71c8.62,-5.23 14.44,-14.61 14.44,-25.43 0,-10.82 -5.82,-20.2 -14.44,-25.42l0 -47.71c8.62,-5.23 14.44,-14.61 14.44,-25.43 0,-10.82 -5.82,-20.2 -14.44,-25.43l0 -47.71c8.62,-5.22 14.44,-14.61 14.44,-25.42 0,-10.82 -5.82,-20.21 -14.44,-25.43l0 -47.72c8.62,-5.22 14.44,-14.6 14.44,-25.42 0,-10.82 -5.82,-20.2 -14.44,-25.43l0 -47.71c8.62,-5.23 14.44,-14.61 14.44,-25.43 0,-10.82 -5.82,-20.2 -14.44,-25.42l0 -76.78 -50.92 30.94c-17.53,10.65 -27.81,27.15 -27.81,44.65l0 546.05z"/>
  <path class="fil4" d="M5383.94 569.07c0,-17.5 -10.28,-34 -27.81,-44.65l-50.92 -30.94 0 76.78c-8.62,5.22 -14.44,14.6 -14.44,25.42 0,10.82 5.82,20.2 14.44,25.43l0 47.71c-8.62,5.23 -14.44,14.61 -14.44,25.43 0,10.82 5.82,20.2 14.44,25.42l0 47.71c-8.62,5.23 -14.44,14.61 -14.44,25.43 0,10.82 5.82,20.2 14.44,25.43l0 47.71c-8.62,5.22 -14.44,14.61 -14.44,25.43 0,10.81 5.82,20.2 14.44,25.43l0 47.71c-8.62,5.22 -14.44,14.6 -14.44,25.42 0,10.82 5.82,20.2 14.44,25.43l0 47.71c-8.62,5.23 -14.44,14.61 -14.44,25.43 0,10.82 5.82,20.2 14.44,25.43l0 76.77 50.92 -30.93c17.54,-10.65 27.81,-27.16 27.81,-44.66l0 -546.05z"/>
  <path class="fil5" d="M2404.88 1576.46c0,-14.29 -11.58,-25.87 -25.86,-25.87 -14.29,0 -25.86,11.58 -25.86,25.87 0,14.28 11.57,25.85 25.86,25.85 14.28,0 25.86,-11.57 25.86,-25.85z"/>
  <path class="fil6" d="M2543.29 1576.46c0,-16.75 -13.58,-30.33 -30.33,-30.33 -16.75,0 -30.32,13.58 -30.32,30.33 0,16.74 13.57,30.32 30.32,30.32 16.75,0 30.33,-13.58 30.33,-30.32z"/>
  <path class="fil7" d="M2677.23 1576.46c0,-16.75 -13.57,-30.33 -30.32,-30.33 -16.75,0 -30.32,13.58 -30.32,30.33 0,16.74 13.57,30.32 30.32,30.32 16.75,0 30.32,-13.58 30.32,-30.32z"/>
  <path class="fil6" d="M2811.18 1576.46c0,-16.75 -13.57,-30.33 -30.32,-30.33 -16.75,0 -30.33,13.58 -30.33,30.33 0,16.74 13.58,30.32 30.33,30.32 16.75,0 30.32,-13.58 30.32,-30.32z"/>
  <path class="fil6" d="M2945.13 1576.46c0,-16.75 -13.58,-30.33 -30.33,-30.33 -16.74,0 -30.32,13.58 -30.32,30.33 0,16.74 13.58,30.32 30.32,30.32 16.75,0 30.33,-13.58 30.33,-30.32z"/>
  <path class="fil5" d="M3074.61 1576.46c0,-14.29 -11.58,-25.87 -25.86,-25.87 -14.28,0 -25.86,11.58 -25.86,25.87 0,14.28 11.58,25.85 25.86,25.85 14.28,0 25.86,-11.57 25.86,-25.85z"/>
  <path class="fil8" d="M2185.76 1538.66l-411.63 0c-35.6,0 -69.17,20.9 -90.83,56.56l-11.57 19.04 438.43 0c41.75,0 75.6,-33.85 75.6,-75.6z"/>
  <path class="fil9" d="M3255.24 1538.66l411.63 0c35.6,0 69.17,20.9 90.83,56.56l11.56 19.04 -438.42 0c-41.75,0 -75.6,-33.85 -75.6,-75.6z"/>
  <path class="fil10" d="M215.97 141.4c0,-22.95 -18.61,-41.55 -41.56,-41.55 -22.94,0 -41.55,18.6 -41.55,41.55 0,22.95 18.61,41.55 41.55,41.55 22.95,0 41.56,-18.6 41.56,-41.55z"/>
  <path class="fil10" d="M215.97 1542.79c0,-22.95 -18.61,-41.55 -41.56,-41.55 -22.94,0 -41.55,18.6 -41.55,41.55 0,22.95 18.61,41.55 41.55,41.55 22.95,0 41.56,-18.6 41.56,-41.55z"/>
  <path class="fil11" d="M5313.26 141.4c0,-22.95 -18.6,-41.55 -41.55,-41.55 -22.95,0 -41.55,18.6 -41.55,41.55 0,22.95 18.6,41.55 41.55,41.55 22.95,0 41.55,-18.6 41.55,-41.55z"/>
  <path class="fil11" d="M5313.26 1542.79c0,-22.95 -18.6,-41.55 -41.55,-41.55 -22.95,0 -41.55,18.6 -41.55,41.55 0,22.95 18.6,41.55 41.55,41.55 22.95,0 41.55,-18.6 41.55,-41.55z"/>
 </g>
</svg>
