<?xml version="1.0" encoding="UTF-8"?>
<!DOCTYPE svg PUBLIC "-//W3C//DTD SVG 1.1//EN" "http://www.w3.org/Graphics/SVG/1.1/DTD/svg11.dtd">
<!-- Creator: CorelDRAW -->
<svg xmlns="http://www.w3.org/2000/svg" xml:space="preserve" width="28.575mm" height="28.5748mm" version="1.1" style="shape-rendering:geometricPrecision; text-rendering:geometricPrecision; image-rendering:optimizeQuality; fill-rule:evenodd; clip-rule:evenodd"
viewBox="0 0 2857.5 2857.48"
 xmlns:xlink="http://www.w3.org/1999/xlink"
 xmlns:xodm="http://www.corel.com/coreldraw/odm/2003">
 <defs>
  <style type="text/css">
   <![CDATA[
    .fil7 {fill:#00A06D;fill-rule:nonzero}
    .fil2 {fill:#00B378;fill-rule:nonzero}
    .fil1 {fill:#221E1F;fill-rule:nonzero}
    .fil5 {fill:#3F589D;fill-rule:nonzero}
    .fil8 {fill:#53BD99;fill-rule:nonzero}
    .fil3 {fill:#586BB1;fill-rule:nonzero}
    .fil9 {fill:#7DC9AF;fill-rule:nonzero}
    .fil6 {fill:#E4707F;fill-rule:nonzero}
    .fil4 {fill:#F28D9C;fill-rule:nonzero}
    .fil0 {fill:url(#id0);fill-rule:nonzero}
   ]]>
  </style>
  <linearGradient id="id0" gradientUnits="userSpaceOnUse" x1="-2.12" y1="1430.86" x2="2855.38" y2="1430.86">
   <stop offset="0" style="stop-opacity:1; stop-color:#8AC43F"/>
   <stop offset="1" style="stop-opacity:1; stop-color:#37B34A"/>
  </linearGradient>
 </defs>
 <g id="Слой_x0020_1">
  <metadata id="CorelCorpID_0Corel-Layer"/>
  <path class="fil0" d="M2855.38 1430.86c0,789.07 -639.67,1428.74 -1428.75,1428.74 -789.08,0 -1428.75,-639.67 -1428.75,-1428.74 0,-789.07 639.67,-1428.75 1428.75,-1428.75 789.08,0 1428.75,639.68 1428.75,1428.75z"/>
  <path class="fil1" d="M668.56 1814.63c2.37,-46.32 -5.06,-102.31 5.81,-157.61 20.09,-102.24 78.13,-179.68 158.98,-241.98 49.07,-37.81 103.56,-65.63 162.26,-84.96 11.95,-3.94 15.61,-7.21 11.09,-20.48 -118.62,-348.51 90.55,-717.63 450.08,-794.42 36.57,-7.82 73.73,-12.98 111.24,-12.52 75.39,0.91 151.09,-5.5 226.15,3.34 225.89,26.61 389.83,143.69 490.14,346.77 59.96,121.38 72.46,250.63 44.94,383.24 -2.56,12.38 0.85,17.91 10.06,24.82 74.07,55.63 129.13,124.57 149.22,217.36 4.3,19.88 6.34,39.97 6.26,60.36 -0.21,52.62 -1.66,105.31 0.26,157.85 4.33,118.53 -46.29,210.41 -135.17,283.78 -88.37,72.96 -191.92,111.18 -304.12,127.58 -107.41,15.71 -213.46,8.76 -317.77,-22.03 -6.99,-2.06 -13.12,-4.69 -19.04,4.91 -63.71,103.27 -159.35,165.28 -272.01,201.01 -195.24,61.93 -386.23,50.72 -568.26,-47.28 -85.12,-45.81 -152.5,-110.69 -189.41,-202.63 -13.81,-34.39 -20.83,-70.29 -20.73,-107.48 0.09,-36.78 0.02,-73.55 0.02,-119.63z"/>
  <path class="fil1" d="M1033.74 685.93c-0.46,15.79 -12.15,29.21 -29.06,29.24 -66.82,0.15 -122.85,54.05 -123.39,123.26 -0.13,17.73 -14.46,29.69 -31.02,29.21 -15.81,-0.47 -29.15,-12.11 -29.23,-29.06 -0.31,-66.96 -53.82,-122.74 -123.25,-123.39 -17.76,-0.16 -29.67,-14.39 -29.2,-31 0.44,-15.83 12.07,-29.15 29,-29.26 67.9,-0.45 122.71,-54.61 123.44,-123.25 0.18,-17.78 14.37,-29.67 30.97,-29.2 15.81,0.44 29.25,12.09 29.27,29 0.1,66.92 54.16,122.72 123.27,123.44 17.73,0.18 29.68,14.44 29.2,31.01z"/>
  <path class="fil1" d="M1943.99 2267.77c-43.87,0.49 -92.29,-4.76 -140.64,-11.6 -12.12,-1.72 -13.88,-6.85 -11.98,-17.7 7.91,-45.08 7.55,-44.3 58.21,-38.06 140.59,17.32 276.4,-0.23 406.41,-57.85 3.47,-1.54 6.84,-3.29 10.37,-4.66 12.12,-4.72 27.02,-20.47 34.44,-14.56 12.88,10.27 19.59,28.75 27.67,44.41 4.96,9.64 -6.16,9.41 -10.41,11.71 -65.52,35.58 -135.46,58.85 -208.53,72.84 -52.98,10.14 -106.48,15.71 -165.54,15.47z"/>
  <path class="fil1" d="M882.98 1064.95c-4.52,70.43 1.33,140.18 17.96,208.93 2.24,9.25 0.81,13.11 -8.87,15.88 -47.5,13.59 -47.86,13.96 -57.67,-35.14 -12.47,-62.39 -15.85,-125.46 -12.74,-188.99 0.64,-13.18 3.47,-19.98 18.78,-16.47 10.35,2.37 21.4,1.84 32.15,2.33 8.83,0.4 13.02,4.1 10.39,13.46z"/>
  <path class="fil1" d="M2455.23 2076.2c-2.84,3.18 -4.74,5.73 -7.05,7.81 -15.49,13.93 -31.29,27.53 -46.53,41.73 -8.4,7.83 -13.37,5.32 -18.99,-3.29 -7.92,-12.12 -22.82,-23.08 -23.84,-35.44 -1.13,-13.74 18.89,-19.3 29,-29.14 23.99,-23.36 24.46,-22.96 49.05,0.03 6.23,5.83 12.11,12.05 18.36,18.3z"/>
  <path class="fil1" d="M881.98 992.92c-14.05,-2.38 -28.29,-5.21 -42.65,-7.06 -7.41,-0.96 -7.68,-4.99 -6.64,-10.49 0.47,-2.48 1.19,-4.91 1.69,-7.38 10.26,-50.49 10.2,-50.29 58.76,-35.18 8.62,2.68 10.41,6.25 7.98,14.74 -3.47,12.07 -6,24.49 -7.84,36.92 -1.09,7.37 -3.94,10.15 -11.3,8.45z"/>
  <path class="fil2" d="M2129.48 1110.99c0.04,301.97 -245.86,547.99 -547.75,548.02 -301.96,0.03 -547.91,-245.83 -547.93,-547.74 -0.02,-302.8 246.23,-548.32 549.58,-547.94 300.61,0.37 546.06,246.52 546.1,547.66z"/>
  <path class="fil3" d="M1151.14 1541.14c-23.98,5.44 -46.39,8.38 -67.99,14.94 -29.74,9.04 -58.32,20.28 -85.08,36.31 -8.81,5.28 -9.9,9.63 -3.87,17.61 8.76,11.58 14.37,28.78 25.78,34.18 10.99,5.19 23.7,-10.19 36.17,-15.47 48.31,-20.45 98.55,-30.62 151.01,-30.81 9.18,-0.03 15.74,3.98 22.35,8.67 64.18,45.55 134.46,77.56 210.99,95.95 19.78,4.75 24.04,12.33 17.89,32.29 -7.88,25.53 -26.25,42.7 -47.61,57.13 -21.1,14.27 -44.14,24.54 -68.46,31.81 -8.92,2.67 -10.81,6.23 -8.34,15.89 12.13,47.42 11.82,47.77 57.07,29.33 40.33,-16.44 76.75,-38.25 103.13,-74.46 14.57,-20.01 23.02,-42.12 25.9,-66.19 1.22,-10.2 5.03,-13.25 14.32,-11.9 49.21,7.15 98.71,2.96 148.05,2.88 18.64,-0.03 22.71,6.38 20.97,22.74 -6.97,65.48 -31.86,123.16 -75.1,172.68 -83.9,96.07 -192.69,144.47 -316.43,163.24 -131.23,19.9 -257.13,2.54 -375.23,-59.17 -83.47,-43.61 -151.69,-104.12 -186.87,-193.96 -42.4,-108.28 -20.93,-207.64 51.52,-296.05 57.75,-70.46 133.79,-114.68 219.28,-143.97 12.2,-4.18 19.31,-2.66 23.3,9.54 4.66,14.29 23.45,26.9 17.54,39.41 -4.35,9.23 -25.12,10.71 -38.56,15.66 -82.84,30.52 -154.48,76.01 -199.67,154.61 -46.87,81.52 -41.99,162.63 5.8,242.36 5.82,9.72 11.04,11.88 20.5,3.31 10.24,-9.28 27.17,-14.39 32.1,-25.38 4.72,-10.52 -10.51,-22.16 -15.8,-33.97 -29.82,-66.56 -15.42,-141.8 40.03,-199.06 52.19,-53.91 117.59,-83.84 189.34,-101.85 6.77,-1.7 10.79,-0.12 14.87,4.59 12.81,14.79 25.72,29.49 41.1,47.11z"/>
  <path class="fil4" d="M1765.87 1785.96c42.71,11.32 85.95,20.53 130.23,23.11 141.71,8.27 275.6,-14.32 389.94,-105.53 54.3,-43.31 88.42,-99.49 86.62,-171.62 -1.51,-60.46 -30.27,-108.97 -73.58,-149.06 -11.12,-10.29 -15.04,-18.42 -6.32,-31.47 3.44,-5.16 5.12,-11.51 7.46,-17.38 8.42,-21.17 8.28,-21.05 26.29,-5.55 51.27,44.14 89.4,96.92 102.79,164.24 15.52,78.03 -7.75,146.82 -57.09,206.91 -67.92,82.74 -159.34,127.26 -260.83,152.61 -108.72,27.15 -217.97,26.48 -327.22,0.92 -15.76,-3.68 -22.21,-10.03 -20.18,-26.36 1.48,-11.86 0.37,-24.04 0.52,-36.08 0.01,-1.21 0.67,-2.41 1.37,-4.74z"/>
  <path class="fil4" d="M1762.8 1720.12c52.88,-5.21 100.34,-11.94 146.44,-26.36 142.02,-44.42 254.42,-128.23 335.57,-253.02 9.67,-14.87 14.27,-13.71 25.03,-1.88 56.61,62.23 56.22,138.52 -2.25,198.91 -53.1,54.85 -120.33,82.86 -193.22,98.72 -100.93,21.95 -201.14,18.98 -300.03,-12.35 -2.22,-0.71 -4.4,-1.53 -11.54,-4.02z"/>
  <path class="fil5" d="M1185.95 2207.05c0,15.84 -0.39,31.7 0.14,47.52 0.33,9.94 -3.26,14.06 -13.3,12.62 -32.41,-4.66 -65.22,-6.26 -97.26,-14.05 -8.7,-2.12 -11.48,-5.08 -11.41,-13.48 0.28,-32.31 0.3,-64.63 0,-96.94 -0.08,-9.01 3.28,-13.86 12.25,-11.45 31.88,8.56 64.76,10.03 97.28,13.92 10.07,1.2 12.74,5.1 12.45,14.35 -0.51,15.82 -0.14,31.67 -0.15,47.51z"/>
  <path class="fil5" d="M1368.57 2193.12c0,15.21 -0.18,30.42 0.08,45.62 0.13,7.71 -1.08,12.31 -10.43,14.49 -33.32,7.77 -67.36,9.63 -101.08,14.04 -7.24,0.95 -10.32,-2.62 -10.3,-9.86 0.11,-33.58 0.18,-67.16 -0.07,-100.75 -0.06,-8.35 3.98,-10.3 11.47,-11.27 33.1,-4.29 66.62,-5.7 99.18,-13.91 8.52,-2.15 11.29,2.38 11.2,10.32 -0.19,17.1 -0.06,34.21 -0.05,51.32z"/>
  <path class="fil6" d="M1794.67 1918.22c36.17,6.09 72.46,11.3 109.07,13.66 9.57,0.62 13.08,3.34 12.9,13.33 -0.56,32.3 -0.42,64.62 -0.07,96.93 0.09,8.88 -2.45,12.8 -11.92,11.68 -36.94,-4.36 -74.28,-6.05 -110.1,-17.47 -4.06,-5.18 -5.59,-11.21 -5.69,-17.64 -0.43,-27.68 -0.45,-55.37 0.02,-83.05 0.11,-6.32 0.88,-12.62 5.79,-17.44z"/>
  <path class="fil6" d="M2099.05 1977.74c0.01,5.69 0.01,11.38 0.01,17.07 0,44.25 0.06,44.65 -43.16,51.33 -21.83,3.37 -43.96,4.69 -65.88,7.57 -10.49,1.39 -13,-2.79 -12.87,-12.5 0.44,-32.25 0.25,-64.52 0.1,-96.77 -0.03,-6.99 0.53,-11.63 9.7,-12.34 34.61,-2.7 69.3,-5.18 103.25,-13.1 9.35,-2.18 8.86,3.46 8.85,9.4 -0.02,16.44 -0.01,32.89 0,49.34z"/>
  <path class="fil5" d="M881.62 2058.33c39.19,20.16 74.83,39.27 113.51,51.5 5.27,1.67 8.27,4.99 8.24,11.13 -0.16,34.2 -0.16,68.4 0.01,102.6 0.05,8.37 -2.93,9.27 -10.36,6.62 -35.88,-12.78 -69.86,-29.38 -102.45,-49.02 -6.09,-3.66 -9.09,-7.89 -9.05,-15.12 0.22,-34.79 0.1,-69.59 0.1,-107.71z"/>
  <path class="fil5" d="M1551.18 2058.37c0,38.06 -0.1,72.83 0.09,107.59 0.04,7.15 -2.73,11.54 -8.89,15.24 -32.64,19.56 -66.72,35.97 -102.46,49.1 -10.08,3.71 -10.52,-0.98 -10.5,-8.49 0.1,-32.93 0.15,-65.87 -0.04,-98.8 -0.03,-6.42 1.64,-11.09 8.15,-13.15 38.67,-12.25 74.36,-31.27 113.65,-51.49z"/>
  <path class="fil6" d="M2159.93 2020.55c0,-37.48 0.13,-72.23 -0.1,-106.98 -0.05,-7.02 1.15,-12.24 8.76,-14.49 38.16,-11.3 74.31,-27.55 112.96,-47.98 0,37.63 0.05,72.5 -0.06,107.37 -0.02,5.27 -4.65,7.01 -8.36,9.32 -34.9,21.74 -71.87,38.94 -113.2,52.76z"/>
  <path class="fil7" d="M2232.41 1080.71c-11.81,-1.27 -29.88,6.08 -39.71,-2.76 -9.82,-8.83 -4.66,-27.46 -6.87,-41.67 -3.39,-21.8 -7.12,-43.58 -11.89,-65.1 -1.95,-8.81 -1.88,-12.62 8.61,-12.35 22.11,0.55 44.24,0.43 66.36,0.04 8.44,-0.15 11.99,3.07 14.3,11.26 9.31,32.95 13.15,66.76 17.33,100.55 0.95,7.65 -2.34,10.22 -9.52,10.09 -12.01,-0.22 -24.02,-0.06 -38.61,-0.06z"/>
  <path class="fil7" d="M2234.97 1141.6c3.16,0 6.32,0 9.48,0 37.03,0 37.56,0.07 33.09,36.36 -3.08,25.01 -7.55,49.84 -14.32,74.24 -2.28,8.21 -5.86,11.42 -14.31,11.27 -22.12,-0.39 -44.25,-0.25 -66.37,-0.06 -7.48,0.06 -11.51,-0.45 -9.1,-10.4 7.57,-31.29 13.13,-63.02 14.66,-95.26 0.59,-12.33 5.2,-18.06 18.45,-16.38 9.33,1.19 18.94,0.23 28.42,0.23z"/>
  <path class="fil7" d="M2091.14 776.38c23.99,0 45.49,0.39 66.96,-0.19 8.47,-0.23 12.66,4.58 16.79,10.24 22.48,30.78 41.61,63.5 57.8,98.03 5.46,11.63 2.09,14.81 -9.37,13.66 -0.63,-0.07 -1.27,0 -1.9,-0.01 -22.17,-0.2 -47.36,6.08 -65.65,-2.45 -17.87,-8.33 -18.56,-36.79 -29.2,-55.26 -11.62,-20.19 -22.59,-40.75 -35.43,-64.02z"/>
  <path class="fil7" d="M2089.88 1445.96c24.39,-38.46 43.73,-75.29 58.86,-114.2 2.6,-6.68 7.43,-7.62 13.55,-7.58 20.92,0.14 41.85,0.44 62.76,-0.1 12.51,-0.32 11.73,4.59 7.6,13.59 -16.18,35.26 -35.89,68.36 -58.77,99.64 -4.48,6.12 -9.61,9.01 -17.52,8.82 -20.88,-0.5 -41.78,-0.17 -66.48,-0.17z"/>
  <path class="fil5" d="M820.73 2128.6c-59.02,-60.31 -94.18,-125.03 -91.13,-210.39 21.98,27.28 39.75,54.78 65.41,73.53 23,16.82 28.37,36.84 26.12,63.12 -1.93,22.56 -0.4,45.43 -0.4,73.74z"/>
  <path class="fil5" d="M1612.11 2124.85c0,-35.18 0,-69.04 0.01,-102.89 0,-3.87 0.41,-7.66 3.76,-10.26 33.07,-25.67 59.52,-57.61 85.15,-91.51 12.34,65.24 -35.25,163.47 -88.92,204.66z"/>
  <path class="fil6" d="M2342.55 1913.09c0,-32.64 0.05,-62.28 -0.04,-91.91 -0.02,-5.23 0.4,-9.97 5.05,-13.48 31.36,-23.69 58.14,-52.08 83.35,-83.22 9.42,49.76 -33.07,141.23 -88.36,188.61z"/>
  <path class="fil7" d="M1901.44 1630.94c49.9,-33.81 96.36,-71.45 135.94,-117.11 4.55,-5.25 9.64,-7.24 16.49,-7.11 17.64,0.34 35.29,0.12 57.78,0.12 -62.5,59.66 -131.55,99.69 -210.21,124.1z"/>
  <path class="fil7" d="M1900.73 591.05c79.01,23.81 147.71,64.85 211.57,124.43 -23.73,0 -42.44,-0.15 -61.14,0.09 -5.66,0.07 -9.56,-2.33 -13.02,-6.34 -39.89,-46.21 -86.85,-84.18 -137.41,-118.18z"/>
  <path class="fil4" d="M1794.67 1918.22c-0.04,39.37 -0.08,78.75 -0.12,118.13 -0.63,0.01 -1.28,0.1 -1.9,0.01 -42.88,-5.91 -42.83,-5.9 -34.15,-46.75 5.4,-25.46 6.22,-51.34 5.84,-79.02 11.09,2.79 20.71,5.21 30.33,7.63z"/>
  <path class="fil8" d="M850.67 734.58c-2.25,-2.47 -4.43,-4.53 -6.22,-6.89 -10.36,-13.68 -22.26,-25.85 -36.14,-35.95 -5.67,-4.14 -8.18,-7.54 -0.92,-12.71 14.51,-10.34 27.04,-22.82 37.4,-37.32 4.61,-6.44 8.02,-6.53 12.69,-0.01 10.38,14.47 23.05,26.77 37.34,37.41 3.47,2.58 8.51,5.49 2.37,10.02 -15.89,11.73 -29.76,25.39 -41.48,41.29 -1.02,1.4 -2.72,2.29 -5.04,4.16z"/>
  <path class="fil1" d="M1886 1112.41c0,46.92 -0.54,93.84 0.26,140.74 0.33,19.31 -6.4,31.89 -23.65,41.35 -86.04,47.21 -171.73,95.04 -257.29,143.12 -15.87,8.91 -29.65,9.7 -46.12,0.4 -85.99,-48.55 -172.38,-96.37 -258.91,-143.94 -16.28,-8.95 -23.39,-20.79 -23.28,-39.62 0.58,-95.73 0.54,-191.47 0.02,-287.2 -0.1,-17.99 6.5,-29.83 22.09,-38.42 87.59,-48.25 175.09,-96.7 262.36,-145.54 13.54,-7.59 25.58,-8.46 39.24,-0.83 88.45,49.39 177.04,98.54 265.68,147.58 14.43,7.98 19.92,19.71 19.76,35.9 -0.45,48.82 -0.16,97.64 -0.16,146.46z"/>
  <path class="fil1" d="M1094.66 1132.61c0.05,-264 177.48,-468.53 419.68,-503.7 103.33,-15.01 201.57,3.39 294.51,51.31 13.58,7.01 15.52,12.9 6.87,24.9 -7.73,10.72 -11.46,27.62 -21.48,32.5 -10.59,5.16 -23.07,-8.78 -34.79,-14.11 -249.02,-113.32 -540.8,33 -594.76,300.85 -29.7,147.4 10.04,277.15 114.29,386 11.14,11.63 10.73,17.15 -0.13,28.05 -29.64,29.72 -29.58,30.7 -57.64,-0.35 -83.87,-92.84 -124.44,-202.62 -126.55,-305.45z"/>
  <path class="fil1" d="M1581.11 1598.31c-72.59,-0.55 -141.65,-16.5 -207.63,-46.68 -13.47,-6.16 -19.83,-11.03 -10.24,-27.42 19.9,-34.03 18.76,-34.69 55.86,-19.36 256.08,105.87 545.54,-58.3 584.11,-332.33 17.5,-124.33 -14.78,-235.99 -94.19,-333.35 -10.62,-13.01 -13.69,-20.29 0.99,-32.95 30.21,-26.06 29.37,-27.03 55.36,5.4 222.33,277.55 66.05,706.49 -282.5,775.6 -33.64,6.67 -67.41,11.19 -101.76,11.09z"/>
  <path class="fil1" d="M1222.85 2024.6c-93.53,-2.77 -175.8,-18.33 -253.15,-56.63 -14.17,-7.01 -14.54,-12.86 -7.44,-24.96 19.65,-33.47 19.1,-33.14 54.65,-19.02 142.89,56.78 284.59,55.59 423.71,-12 47.88,-23.25 88.47,-56.29 115.93,-103.29 2.11,-3.61 4.02,-10.24 9.01,-8.04 16.14,7.15 32.21,14.76 47.21,23.98 5.13,3.15 -1.89,8.9 -4.16,12.86 -31.26,54.38 -77.79,92.73 -131.8,122.33 -66.22,36.28 -137.41,56.15 -212.9,60.92 -16.38,1.04 -32.61,4.47 -41.06,3.85z"/>
  <path class="fil1" d="M1207.96 1902.59c-75.93,-4.44 -153.19,-16.77 -221.1,-62.89 -37.47,-25.44 -64.58,-57.52 -73.13,-103.71 -2.92,-15.74 0.41,-30.1 2.64,-44.94 1.14,-7.56 5.76,-10.67 13.77,-7.53 12.33,4.83 24.78,9.39 37.33,13.59 6.33,2.12 6.57,5.8 5.87,11.63 -3.97,33.43 12.99,56.76 38.05,75.56 42.57,31.93 91.76,46.02 143.59,53.86 24.64,3.73 49.19,3.88 73.78,3.14 11.81,-0.36 15.91,4.67 16.98,14.86 0.33,3.15 0.92,6.3 0.9,9.44 -0.27,43.52 6.13,35.58 -38.68,36.99z"/>
  <path class="fil9" d="M1338.15 1111.2c0,-40.54 0.28,-81.09 -0.21,-121.62 -0.11,-9.41 2.83,-14.63 11.2,-19.23 73.7,-40.47 147.23,-81.25 220.52,-122.46 8.81,-4.95 15.31,-5.04 24.05,-0.13 73.3,41.14 146.79,81.95 220.45,122.45 8.38,4.6 11.2,9.93 11.16,19.31 -0.34,81.08 -0.33,162.16 0,243.24 0.04,9.34 -2.7,14.73 -11.1,19.34 -73.67,40.5 -147.15,81.32 -220.46,122.44 -8.7,4.88 -15.19,4.92 -24.05,-0.07 -73.28,-41.22 -146.81,-81.99 -220.51,-122.47 -8.35,-4.58 -11.38,-9.75 -11.26,-19.18 0.49,-40.54 0.21,-81.08 0.21,-121.62z"/>
  <path class="fil1" d="M1764.25 1105.65c0,17.76 -0.6,35.54 0.16,53.26 0.92,21.48 -16.15,14.23 -23.61,12.25 -12.47,-3.33 -34.6,14.94 -36.92,-12.11 -2.26,-26.44 -0.82,-53.23 -0.32,-79.85 0.17,-8.63 -2.53,-13.67 -10.14,-18.11 -34.44,-20.09 -68.67,-40.57 -102.56,-61.57 -8.21,-5.09 -14.31,-4.35 -22.42,-0.11 -27.46,14.34 -55.59,27.38 -82.95,41.88 -9.74,5.16 -13.41,3 -18.18,-6.26 -21.59,-41.9 -21.89,-41.75 20.87,-63.14 24.88,-12.45 49.95,-24.55 74.59,-37.48 12.97,-6.8 24.85,-7.33 37.59,0.39 48.73,29.53 97.61,58.8 146.52,88.03 12.06,7.2 17.55,17.59 17.41,31.47 -0.17,17.11 -0.04,34.24 -0.04,51.35z"/>
 </g>
</svg>
