<svg width="3022" height="357" viewBox="0 0 3022 357" fill="none" xmlns="http://www.w3.org/2000/svg">
<path d="M989.28 237.59C989.28 252.78 983.61 268.51 972.16 284.72C956.13 307.44 932.8 321.54 902.07 326.97C881.45 330.59 864.1 332.45 849.99 332.45C807.8 332.45 784.24 318.89 779.17 291.83C777.67 283.33 776.22 267.6 774.95 244.64C773.99 228.43 771.4 216.37 767.18 208.48C761.39 197.27 750.42 187.87 734.33 180.21C733.37 183.04 732.89 191.24 732.89 204.74C732.89 239.03 739.15 277.19 751.63 319.37L668.28 319.92C629.76 320.22 609.81 320.64 608.43 321.12C608.31 320.52 608.19 319.86 608.07 319.01C608.07 305.93 610.12 299.06 614.27 298.34C621.08 297.38 627.9 296.47 634.71 295.51C641.58 293.4 645.19 288.22 645.67 279.96C648.75 235.72 652.06 202.21 655.56 179.49C661.95 139.83 672.07 103.06 685.94 69.1301C683.46 69.6101 679.91 69.8601 675.33 69.8601C662.85 69.8601 652.97 66.4801 645.67 59.7901L657.01 18.1401C677.68 34.2401 699.13 45.6301 721.25 52.2001C739.88 57.7401 761.45 60.5101 786.04 60.5101C796.65 60.5101 814.01 59.7301 838.06 58.1001C862.11 56.5401 876.87 55.7501 882.3 55.7501C908.27 55.7501 927.92 61.9001 941.06 74.2501C952.27 84.7401 957.88 98.6001 957.88 115.78C957.88 141.64 944.07 162.13 916.53 177.2C892.42 190.52 862.77 197.15 827.57 197.15C816 197.15 803.76 196.48 790.81 195.04C817.2 200.58 835.71 207.21 846.44 214.99C855.18 221.5 859.51 229.57 859.51 239.4C859.51 243.37 858.55 250.25 856.62 259.95C854.63 269.65 853.67 277.25 853.67 282.79C853.67 297.32 862.11 304.55 878.92 304.55C892.36 304.55 907.49 301.23 924.3 294.66C940.7 288.28 948.83 282.91 948.83 278.57C948.83 277.07 947.63 276.28 945.16 276.28C943.47 276.28 937.68 277.43 927.68 279.72C917.68 282.01 909.48 283.15 903.15 283.15C887.36 283.15 877.41 278.03 873.26 267.78C872.71 266.52 872.41 264.89 872.41 263.02C872.41 255.13 877.41 246.57 887.42 237.23C898.45 226.92 913.15 218.24 931.36 211.31C940.22 207.88 948.29 206.19 955.59 206.19C966.25 206.19 974.81 209.8 981.14 217.1C986.56 223.24 989.28 230.05 989.28 237.59V237.59ZM890.61 140.31C890.61 130.43 880.07 120.84 859.09 111.62C838.06 102.4 816.12 97.7601 793.28 97.7601C774.35 97.7601 757.84 100.05 743.85 104.57C729.87 109.09 722.82 114.64 722.82 121.27C722.82 132.66 737.04 142.48 765.37 150.74C788.21 157.31 808.47 160.62 826.12 160.62C843.54 160.62 858.19 159.06 870.12 155.86C883.74 152.06 890.61 146.88 890.61 140.31V140.31ZM1281.53 142.6C1281.53 164.6 1275.86 190.52 1264.53 220.29C1251.45 254.58 1235.12 282.43 1215.47 304.01C1188.65 333.3 1157.85 347.94 1123.14 347.94C1091.19 347.94 1063.17 334.02 1039.06 306.12C1014.11 277.19 1001.63 242.23 1001.63 201.43C1001.63 162.43 1014.53 128.68 1040.33 100.05C1068.65 68.6501 1105.48 52.9201 1150.68 52.9201C1237.89 52.9201 1281.53 82.8101 1281.53 142.6V142.6ZM1233.49 191.72C1233.49 175.21 1224.15 161.35 1205.59 150.02C1187.45 138.74 1165.63 133.08 1140.07 133.08C1116.99 133.08 1094.51 139.53 1072.63 152.49C1049.67 166.05 1038.16 180.93 1038.16 197.15C1038.16 216.13 1048.82 231.86 1070.16 244.34C1088.6 255.01 1108.31 260.37 1129.28 260.37C1155.68 260.37 1179.73 252.9 1201.49 237.95C1222.83 223.49 1233.49 208.06 1233.49 191.72ZM1630.07 287.91C1626.34 294.85 1620.43 305.33 1612.41 319.37C1593.13 318.41 1579.63 317.93 1571.97 317.93C1545.51 317.93 1516.52 320.58 1485.12 325.88C1488.08 305.63 1489.52 285.62 1489.52 265.86C1489.52 244.1 1487.71 227.04 1484.04 214.81C1464.63 212.94 1434.38 209.68 1393.33 205.1C1389.41 218.9 1384.95 232.71 1379.89 246.63C1374.1 262.48 1367.9 276.04 1361.15 287.25C1368.14 288.88 1386.04 290.39 1415.03 291.83C1412.8 307.02 1411.65 320.88 1411.65 333.48C1384.95 324.56 1360 317.21 1336.8 311.42C1321.37 307.5 1301.6 303.4 1277.49 299.06C1280.75 294.78 1284.78 289.42 1289.48 282.79L1298.83 269.89C1303.05 271.7 1309.86 274.71 1319.14 278.93C1336.92 254.46 1352.95 218.9 1367.17 172.26C1382.24 123.44 1390.38 83.3001 1391.52 51.8301C1409.06 49.7301 1425.33 47.0701 1440.28 43.8801C1455.71 40.5001 1472.35 35.8001 1490.25 29.7801C1507.66 58.1601 1526.77 100.95 1547.62 158.15C1557.15 185.82 1569.8 222.4 1585.59 267.96C1587.82 274.11 1594.33 278.87 1605.18 282.25C1613.56 284.18 1621.88 286.05 1630.07 287.91V287.91ZM1495.19 129.88C1495.19 113.79 1484.22 105.72 1462.34 105.72C1446.43 105.72 1432.08 109.93 1419.25 118.43C1405.87 127.23 1399.12 137.42 1399.12 148.99C1399.12 164.24 1412.26 171.89 1438.53 171.89C1476.26 171.89 1495.19 157.91 1495.19 129.88V129.88ZM1923.71 228.25C1923.71 290.87 1884.72 322.21 1806.67 322.21C1794.43 322.21 1777.19 321.42 1755.01 319.92C1732.84 318.35 1716.98 317.57 1707.46 317.57C1680.94 317.57 1661.47 322.21 1649 331.37L1645.26 286.17C1654 280.38 1663.04 277.49 1672.5 277.49C1678.83 277.49 1684.98 279.05 1690.83 282.13C1670.82 229.57 1660.81 168.64 1660.81 99.1501C1660.81 90.4701 1657.5 84.4401 1650.93 81.1901C1650.2 80.8201 1643.15 78.8401 1629.77 75.3401C1627.36 74.3801 1626.22 67.2601 1626.22 53.9401C1626.22 40.6801 1626.7 33.0901 1627.6 31.1601C1654 53.7601 1692.45 65.0901 1742.9 65.0901C1748.32 65.0901 1755.98 64.7901 1765.86 64.1901C1775.75 63.6501 1783.1 63.3501 1787.8 63.3501C1829.09 63.3501 1860.73 76.3001 1882.61 102.34C1898.82 121.51 1911.05 150.26 1919.13 188.53C1922.21 203.35 1923.71 216.61 1923.71 228.25V228.25ZM1878.51 196.85C1878.51 176.78 1869.83 161.17 1852.41 149.83C1840.96 142.3 1822.82 135.55 1797.87 129.52C1780.87 125.42 1762.49 123.38 1742.6 123.38C1739.53 123.38 1737.48 123.5 1736.39 123.74C1733.8 135.49 1732.53 148.63 1732.53 163.09C1732.53 192.75 1736.33 218.96 1743.99 241.69C1754.11 247.17 1771.11 249.94 1795.03 249.94C1820.59 249.94 1840.6 245.66 1855.06 237.05C1870.73 227.88 1878.51 214.44 1878.51 196.85V196.85ZM2374.35 158.88C2374.35 202.87 2350.73 245.18 2303.42 285.8L2352.3 295.51C2354.77 300.21 2358.26 307.26 2362.72 316.54C2349.52 315.58 2330.6 315.1 2305.89 315.1C2282.44 315.1 2257.55 315.46 2231.15 316.18C2240.49 302.32 2250.68 279.9 2261.71 249.1C2273.82 215.17 2279.91 189.19 2279.91 171.05C2279.91 156.89 2275.81 149.83 2267.55 149.83C2253.87 149.83 2238.63 163.88 2221.81 191.84C2207.34 215.77 2196.07 241.63 2188.06 269.41C2188.06 300.09 2189.63 319.56 2192.7 327.63C2197.28 329.68 2205.96 333.3 2218.8 338.6C2217.53 341.92 2215.36 347.76 2212.29 356.26C2172.03 347.76 2136.71 339.26 2106.33 330.65C2119.41 301.47 2125.92 264.89 2125.92 221.01C2125.92 173.82 2117.9 150.2 2101.93 150.2C2091.32 150.2 2081.14 159.54 2071.37 178.28C2061.97 196.42 2055.4 218.24 2051.79 243.8C2052.03 258.62 2057.51 287.67 2068.36 331.01C2045.16 320.88 2020.81 315.82 1995.25 315.82C1972.77 315.82 1957.22 319.92 1948.66 327.99L1946.86 285.8C1951.26 283.33 1956.68 282.13 1963.13 282.13C1970.3 282.13 1978.5 283.94 1987.66 287.55C1980.13 264.71 1974.04 236.56 1969.34 202.99C1964.7 170.99 1962.41 141.64 1962.41 115.06V107.46C1962.41 97.5801 1958.49 91.7301 1950.59 89.9901C1942.7 89.3801 1934.8 88.8401 1926.91 88.2401C1922.57 87.5101 1920.4 78.6501 1920.4 61.5401C1920.4 60.6301 1921.66 60.1501 1924.13 60.1501C1937.51 60.1501 1983.2 57.2601 2061.13 51.4701C2049.38 85.0401 2043.47 120.6 2043.47 158.15C2043.47 165.57 2043.83 171.77 2044.55 176.84C2060.77 118.85 2091.62 78.8401 2137.07 56.7801C2147.56 51.7101 2156.6 49.1801 2164.25 49.1801C2189.32 49.1801 2201.86 74.1301 2201.86 124.04C2201.86 141.94 2200.29 161.53 2197.1 182.68C2204.03 167.01 2217.17 147.12 2236.46 123.01C2258.33 95.8301 2282.38 82.2101 2308.48 82.2101C2327.1 82.2101 2342.71 89.3201 2355.31 103.61C2368.03 118.19 2374.35 136.57 2374.35 158.88V158.88ZM2728.57 287.91C2724.83 294.85 2718.92 305.33 2710.91 319.37C2691.62 318.41 2678.12 317.93 2670.46 317.93C2644 317.93 2615.01 320.58 2583.61 325.88C2586.57 305.63 2588.01 285.62 2588.01 265.86C2588.01 244.1 2586.21 227.04 2582.53 214.81C2563.12 212.94 2532.87 209.68 2491.82 205.1C2487.9 218.9 2483.44 232.71 2478.38 246.63C2472.6 262.48 2466.39 276.04 2459.64 287.25C2466.63 288.88 2484.53 290.39 2513.52 291.83C2511.29 307.02 2510.14 320.88 2510.14 333.48C2483.44 324.56 2458.49 317.21 2435.29 311.42C2419.86 307.5 2400.09 303.4 2375.98 299.06C2379.24 294.78 2383.27 289.42 2387.98 282.79L2397.32 269.89C2401.54 271.7 2408.35 274.71 2417.63 278.93C2435.41 254.46 2451.44 218.9 2465.66 172.26C2480.73 123.44 2488.87 83.3001 2490.01 51.8301C2507.55 49.7301 2523.83 47.0701 2538.77 43.8801C2554.2 40.5001 2570.84 35.8001 2588.74 29.7801C2606.16 58.1601 2625.26 100.95 2646.11 158.15C2655.64 185.82 2668.29 222.4 2684.08 267.96C2686.31 274.11 2692.82 278.87 2703.67 282.25C2712.05 284.18 2720.37 286.05 2728.57 287.91V287.91ZM2593.68 129.88C2593.68 113.79 2582.71 105.72 2560.83 105.72C2544.92 105.72 2530.58 109.93 2517.74 118.43C2504.36 127.23 2497.61 137.42 2497.61 148.99C2497.61 164.24 2510.75 171.89 2537.03 171.89C2574.75 171.89 2593.68 157.91 2593.68 129.88V129.88ZM3021.18 123.38C3021.18 136.57 3018.29 150.44 3012.5 165.02C2993.09 213.66 2961.27 237.95 2916.97 237.95C2898.89 237.95 2882.01 233.85 2866.52 225.59C2857.79 220.89 2847.24 213.24 2834.88 202.63C2842.66 239.7 2856.88 278.51 2877.61 319.01C2829.34 328.66 2780.04 339.02 2729.65 350.05C2728.44 345.83 2727.9 341.25 2727.9 336.31C2727.9 330.16 2728.99 326.73 2731.22 325.88C2735.5 324.74 2741.7 322.75 2749.96 320.04C2758.76 316.78 2763.22 311.42 2763.22 304.01C2763.22 302.92 2763.16 301.84 2763.04 300.63C2756.17 248.86 2752.79 207.21 2752.79 175.81C2752.79 142.72 2755.99 110.66 2762.32 79.5601C2754.66 82.2701 2747.55 83.6601 2740.92 83.6601C2732.48 83.6601 2725.37 81.7901 2719.58 78.1701L2722.78 33.6301C2755.75 50.2701 2788.9 58.5801 2822.35 58.5801C2832.95 58.5801 2850.07 57.3801 2873.64 55.0301C2897.26 52.6801 2915.1 51.4701 2927.22 51.4701C2959.58 51.4701 2983.87 58.7101 2999.96 73.0501C3014.13 85.5301 3021.18 102.28 3021.18 123.38V123.38ZM2980.74 131.99C2980.74 123.19 2973.62 116.2 2959.4 111.02C2945.6 105.96 2927.4 103.43 2904.8 103.43C2879.97 103.43 2857.54 108.13 2837.53 117.53C2818.25 126.51 2808.6 136.03 2808.6 146.16C2808.6 152.49 2817.1 158.09 2834.16 162.91C2849.83 167.37 2866.16 169.6 2883.1 169.6C2905.7 169.6 2927.34 165.87 2948.07 158.33C2969.83 150.44 2980.74 141.64 2980.74 131.99V131.99Z" fill="white"/>
<path d="M297.25 153.23C298.97 153.23 299.6 152.31 300.1 151.02C306.21 135.26 312.32 119.49 318.43 103.73C318.2 103.49 317.98 103.25 317.76 103.01C288.04 119.44 258.32 135.88 228.59 152.31C251.69 153.19 274.47 153.17 297.25 153.23V153.23Z" fill="white"/>
<path d="M356.19 73.6101C346 55.6201 335.53 37.7901 325.27 19.8401C317.62 6.4701 306.29 -0.0298966 290.82 0.000103365C240.23 0.130103 189.64 0.120113 139.05 0.0101131C123.59 -0.0298869 112.25 6.47011 104.61 19.8801C94.3101 37.9601 83.79 55.9201 73.49 74.0001C71.99 76.6401 70.36 77.7701 67.21 77.6301C58.81 77.2601 50.4 77.2101 41.99 77.1701C28.27 77.1101 14.55 77.1501 0 77.1501C1.16 78.4401 1.75014 79.1401 2.39014 79.7901C15.4001 92.9901 28.33 106.29 41.52 119.32C44.44 122.21 44.74 124.23 42.55 127.7C37.72 135.37 33.4501 143.39 28.8601 151.21C21.1501 164.33 20.9901 177.4 28.6401 190.62C54.2201 234.84 79.73 279.1 105.3 323.32C112.61 335.96 123.66 342.21 138.25 342.22C189.24 342.23 240.23 342.18 291.22 342.26C306.35 342.28 317.51 335.79 325.03 322.74C350.55 278.48 376.11 234.25 401.62 189.99C408.74 177.63 408.81 165.14 401.86 152.7C396.99 143.97 392.02 135.28 386.84 126.72C385.34 124.25 385.73 122.95 387.65 121.02C401.03 107.61 414.29 94.0801 427.54 80.5501C428.48 79.5901 430.04 78.9501 429.98 76.9901C428.58 76.9901 427.25 76.9801 425.93 76.9901C404.97 77.1701 384.02 77.2801 363.06 77.6301C359.65 77.6801 357.86 76.5501 356.19 73.6101V73.6101ZM383.58 180.9C358.08 224.86 332.71 268.89 307.37 312.93C304.02 318.75 299.24 321.81 292.51 322.16C289.79 322.31 288.8 321.33 288.47 318.73C287.2 308.95 285.76 299.2 284.4 289.44C282.95 279.02 281.51 268.61 280.06 258.19C279.74 258.1 279.41 258.01 279.09 257.92C271.44 278.84 263.78 299.75 256.13 320.67C255.86 320.67 255.6 320.67 255.33 320.67C253.67 309.14 252.01 297.61 250.33 285.91C248.57 286.7 248.66 288.21 248.23 289.36C244.49 299.34 240.73 309.31 237.15 319.34C236.4 321.46 235.4 322.18 233.14 322.16C220.46 322.05 207.78 322.05 195.1 322.18C192.78 322.2 191.88 321.32 191.15 319.28C187.64 309.5 183.99 299.78 180.37 290.04C179.87 288.69 179.31 287.37 178.01 286.04C176.34 297.61 174.68 309.18 173.01 320.76C172.76 320.8 172.51 320.84 172.26 320.88C164.58 299.92 156.9 278.95 149.22 257.99C148.93 258.03 148.65 258.07 148.36 258.12C147.2 266.21 146.01 274.29 144.88 282.38C143.2 294.52 141.47 306.65 139.94 318.81C139.55 321.88 138.06 322.47 135.4 322.06C129.41 321.14 125.3 317.84 122.31 312.62C105.38 283.13 88.3601 253.69 71.3601 224.24C63.0301 209.79 54.8101 195.29 46.3201 180.94C42.3801 174.28 42.41 168.11 46.3 161.4C71.61 117.8 96.8402 74.1501 121.93 30.4201C126.03 23.2801 131.67 20.1401 139.87 20.1701C190.32 20.3001 240.78 20.2501 291.23 20.2101C298.44 20.2001 303.71 23.1101 307.32 29.3801C332.69 73.4101 358.06 117.44 383.57 161.38C387.47 168.09 387.47 174.19 383.58 180.9V180.9Z" fill="white"/>
<path d="M159.7 129.38C156.55 127.69 156.76 126.57 158.96 124.33C161.67 121.58 164.07 118.53 166.61 115.61C172.14 109.22 177.67 102.83 183.2 96.4502C181.11 97.6902 179.36 99.2302 177.76 100.92C170.6 108.46 163.43 116 156.4 123.66C154.69 125.53 153.46 125.98 151.08 124.62C139.38 117.95 127.57 111.5 115.77 105.02C114.56 104.35 113.48 103.2 111.85 103.44C111.57 104.65 112.24 105.54 112.61 106.5C118.09 120.65 123.51 134.83 129.13 148.94C130.14 151.49 130.01 153.13 128.1 155.24C122.15 161.78 116.48 168.57 110.7 175.26C117.66 169.05 124.09 162.37 130.34 155.53C131.91 153.81 133.45 153.12 135.79 153.14C156.34 153.23 176.88 153.19 197.42 153.19C198.71 153.19 199.99 153.19 201.27 153.19C201.29 152.91 201.32 152.63 201.34 152.36C200.76 152.03 200.19 151.71 199.61 151.39C186.32 144.03 173.09 136.56 159.7 129.38V129.38Z" fill="white"/>
</svg>
