<svg width="0" height="0" class="hidden">
  <symbol fill="currentColor" xmlns="http://www.w3.org/2000/svg" viewBox="0 0 22 22" id="calendar">
    <path d="M19.7084 3.66675H17.7223V4.88897H19.5557V18.3334H2.44455V4.88897H4.27788V3.66675H2.29177C2.14891 3.66914 2.00793 3.69964 1.87687 3.75653C1.7458 3.81341 1.62723 3.89555 1.52792 3.99827C1.42861 4.10099 1.3505 4.22226 1.29807 4.35517C1.24564 4.48807 1.2199 4.63 1.22233 4.77286V18.4495C1.2199 18.5924 1.24564 18.7343 1.29807 18.8672C1.3505 19.0001 1.42861 19.1214 1.52792 19.2241C1.62723 19.3268 1.7458 19.409 1.87687 19.4659C2.00793 19.5227 2.14891 19.5532 2.29177 19.5556H19.7084C19.8513 19.5532 19.9923 19.5227 20.1233 19.4659C20.2544 19.409 20.373 19.3268 20.4723 19.2241C20.5716 19.1214 20.6497 19.0001 20.7021 18.8672C20.7546 18.7343 20.7803 18.5924 20.7779 18.4495V4.77286C20.7803 4.63 20.7546 4.48807 20.7021 4.35517C20.6497 4.22226 20.5716 4.10099 20.4723 3.99827C20.373 3.89555 20.2544 3.81341 20.1233 3.75653C19.9923 3.69964 19.8513 3.66914 19.7084 3.66675Z"></path>
    <path d="M4.88892 8.55566H6.11114V9.77789H4.88892V8.55566Z"></path>
    <path d="M8.55566 8.55566H9.77789V9.77789H8.55566V8.55566Z"></path>
    <path d="M12.2222 8.55566H13.4444V9.77789H12.2222V8.55566Z"></path>
    <path d="M15.8889 8.55566H17.1111V9.77789H15.8889V8.55566Z"></path>
    <path d="M4.88892 11.6111H6.11114V12.8333H4.88892V11.6111Z"></path>
    <path d="M8.55566 11.6111H9.77789V12.8333H8.55566V11.6111Z"></path>
    <path d="M12.2222 11.6111H13.4444V12.8333H12.2222V11.6111Z"></path>
    <path d="M15.8889 11.6111H17.1111V12.8333H15.8889V11.6111Z"></path>
    <path d="M4.88892 14.6667H6.11114V15.889H4.88892V14.6667Z"></path>
    <path d="M8.55566 14.6667H9.77789V15.889H8.55566V14.6667Z"></path>
    <path d="M12.2222 14.6667H13.4444V15.889H12.2222V14.6667Z"></path>
    <path d="M15.8889 14.6667H17.1111V15.889H15.8889V14.6667Z"></path>
    <path d="M6.11111 6.11106C6.27319 6.11106 6.42863 6.04667 6.54323 5.93207C6.65784 5.81746 6.72222 5.66202 6.72222 5.49995V1.83328C6.72222 1.6712 6.65784 1.51576 6.54323 1.40116C6.42863 1.28655 6.27319 1.22217 6.11111 1.22217C5.94903 1.22217 5.7936 1.28655 5.67899 1.40116C5.56438 1.51576 5.5 1.6712 5.5 1.83328V5.49995C5.5 5.66202 5.56438 5.81746 5.67899 5.93207C5.7936 6.04667 5.94903 6.11106 6.11111 6.11106Z"></path>
    <path d="M15.8889 6.11106C16.051 6.11106 16.2065 6.04667 16.3211 5.93207C16.4357 5.81746 16.5001 5.66202 16.5001 5.49995V1.83328C16.5001 1.6712 16.4357 1.51576 16.3211 1.40116C16.2065 1.28655 16.051 1.22217 15.8889 1.22217C15.7269 1.22217 15.5714 1.28655 15.4568 1.40116C15.3422 1.51576 15.2778 1.6712 15.2778 1.83328V5.49995C15.2778 5.66202 15.3422 5.81746 15.4568 5.93207C15.5714 6.04667 15.7269 6.11106 15.8889 6.11106Z"></path>
    <path d="M7.94434 3.66675H14.0554V4.88897H7.94434V3.66675Z"></path>
  </symbol>
  <symbol fill="currentColor" xmlns="http://www.w3.org/2000/svg" viewBox="0 0 11 6" id="caret-bottom">
    <path d="M5.49999 5.33324C5.33449 5.33357 5.1741 5.27593 5.04666 5.17033L0.796659 1.62866C0.652005 1.50843 0.561038 1.33566 0.543769 1.14836C0.5265 0.961054 0.584344 0.774564 0.704575 0.62991C0.824807 0.485257 0.997577 0.39429 1.18488 0.377021C1.37218 0.359752 1.55867 0.417595 1.70333 0.537827L5.49999 3.71116L9.29666 0.651161C9.36911 0.592322 9.45248 0.548383 9.54197 0.521869C9.63146 0.495355 9.72531 0.486788 9.81812 0.496662C9.91093 0.506536 10.0009 0.534654 10.0828 0.579402C10.1647 0.62415 10.237 0.684646 10.2954 0.75741C10.3603 0.830242 10.4094 0.915686 10.4397 1.00839C10.47 1.10109 10.4809 1.19905 10.4716 1.29614C10.4623 1.39323 10.433 1.48734 10.3856 1.5726C10.3382 1.65785 10.2738 1.7324 10.1962 1.79158L5.94624 5.21283C5.81514 5.30173 5.65802 5.34413 5.49999 5.33324Z"></path>
  </symbol>
  <symbol fill="none" stroke="currentColor" xmlns="http://www.w3.org/2000/svg" viewBox="0 0 24 24" id="logout">
    <path d="M9 21H5C4.46957 21 3.96086 20.7893 3.58579 20.4142C3.21071 20.0391 3 19.5304 3 19V5C3 4.46957 3.21071 3.96086 3.58579 3.58579C3.96086 3.21071 4.46957 3 5 3H9" stroke-width="2" stroke-linecap="round" stroke-linejoin="round"></path>
    <path d="M16 17L21 12L16 7" stroke-width="2" stroke-linecap="round" stroke-linejoin="round"></path>
    <path d="M21 12H9" stroke-width="2" stroke-linecap="round" stroke-linejoin="round"></path>
  </symbol>
</svg>