<svg width="17" height="17" viewBox="0 0 17 17" fill="none" xmlns="http://www.w3.org/2000/svg">
<path d="M8.47341 0.53125C5.02029 0.53125 2.07185 2.7625 0.982788 5.84375H16.0172C14.9015 2.7625 11.9531 0.53125 8.47341 0.53125Z" fill="#F9F9F9"/>
<path d="M8.47341 16.4688C11.9531 16.4688 14.9015 14.2375 15.9906 11.1562H0.982788C2.07185 14.2641 5.02029 16.4688 8.47341 16.4688Z" fill="#ED4C5C"/>
<path d="M0.982813 5.84375C0.690625 6.66719 0.53125 7.57031 0.53125 8.5C0.53125 9.42969 0.690625 10.3328 0.982813 11.1562H16.0172C16.3094 10.3328 16.4688 9.42969 16.4688 8.5C16.4688 7.57031 16.3094 6.66719 16.0172 5.84375H0.982813Z" fill="#428BC1"/>
</svg>
