<svg width="0" height="0" class="hidden">
  <symbol fill="currentColor" xmlns="http://www.w3.org/2000/svg" viewBox="0 0 17 18" id="twitter">
    <path d="M5.15618 15.8413C11.3433 15.8413 14.7274 10.7153 14.7274 6.27005C14.7274 6.12445 14.7274 5.97951 14.7176 5.83523C15.376 5.35903 15.9442 4.76942 16.3959 4.09398C15.782 4.36616 15.1307 4.54457 14.4638 4.62324C15.1661 4.20289 15.6917 3.54165 15.9427 2.76264C15.2824 3.15451 14.56 3.43065 13.8066 3.57915C13.2995 3.03985 12.6287 2.68274 11.8981 2.56308C11.1675 2.44342 10.4178 2.56788 9.76509 2.91721C9.11236 3.26653 8.59296 3.82125 8.28726 4.49551C7.98156 5.16978 7.9066 5.926 8.07399 6.64715C6.73659 6.58006 5.42824 6.23249 4.23387 5.627C3.03949 5.02151 1.98579 4.17163 1.14115 3.13253C0.710986 3.87307 0.579234 4.74973 0.772724 5.584C0.966214 6.41828 1.4704 7.14744 2.18262 7.62303C1.64726 7.60735 1.12356 7.46293 0.655835 7.20199V7.24462C0.656048 8.02127 0.9249 8.77394 1.41679 9.37497C1.90868 9.97599 2.59332 10.3884 3.3546 10.5422C2.85936 10.6772 2.33974 10.697 1.83568 10.5999C2.05073 11.2682 2.46924 11.8527 3.03272 12.2715C3.5962 12.6904 4.27647 12.9227 4.97845 12.936C4.28099 13.4842 3.48229 13.8895 2.62804 14.1288C1.77378 14.368 0.880742 14.4365 0 14.3303C1.53837 15.3174 3.32831 15.8411 5.15618 15.8387"></path>
  </symbol>
  <symbol fill="currentColor" xmlns="http://www.w3.org/2000/svg" viewBox="0 0 17 17" id="discord">
    <path d="M6.75506 6.87817C6.28778 6.87817 5.91887 7.28807 5.91887 7.78815C5.91887 8.28822 6.29597 8.69812 6.75506 8.69812C7.22234 8.69812 7.59125 8.28822 7.59125 7.78815C7.59945 7.28807 7.22234 6.87817 6.75506 6.87817ZM9.74731 6.87817C9.28003 6.87817 8.91112 7.28807 8.91112 7.78815C8.91112 8.28822 9.28822 8.69812 9.74731 8.69812C10.2146 8.69812 10.5835 8.28822 10.5835 7.78815C10.5835 7.28807 10.2146 6.87817 9.74731 6.87817Z"></path>
    <path d="M13.7316 0H2.74633C1.81996 0 1.06575 0.754211 1.06575 1.68878V12.7724C1.06575 13.707 1.81996 14.4612 2.74633 14.4612H12.0428L11.6083 12.9446L12.6576 13.9201L13.6496 14.8383L15.4121 16.3959V1.68878C15.4121 0.754211 14.6579 0 13.7316 0ZM10.5672 10.7065C10.5672 10.7065 10.272 10.354 10.0261 10.0425C11.1 9.73916 11.5099 9.06693 11.5099 9.06693C11.1738 9.28827 10.8541 9.44403 10.5672 9.5506C10.1573 9.72276 9.76377 9.83753 9.37846 9.90311C8.59146 10.0507 7.87004 10.0097 7.2552 9.89492C6.78791 9.80474 6.38621 9.67357 6.0501 9.5424C5.86155 9.46862 5.6566 9.37845 5.45165 9.26367C5.42706 9.24728 5.40246 9.23908 5.37787 9.22268C5.36147 9.21449 5.35327 9.20629 5.34508 9.19809C5.19751 9.11611 5.11553 9.05873 5.11553 9.05873C5.11553 9.05873 5.50904 9.71456 6.55017 10.0261C6.30424 10.3376 6.00091 10.7065 6.00091 10.7065C4.18917 10.6491 3.50054 9.46043 3.50054 9.46043C3.50054 6.82069 4.68104 4.68103 4.68104 4.68103C5.86155 3.79565 6.98466 3.82024 6.98466 3.82024L7.06664 3.91862C5.59101 4.34491 4.91059 4.99255 4.91059 4.99255C4.91059 4.99255 5.09094 4.89417 5.39426 4.75481C6.27144 4.3695 6.96827 4.26293 7.2552 4.23834C7.30438 4.23014 7.34537 4.22194 7.39456 4.22194C7.89464 4.15636 8.46029 4.13996 9.05055 4.20554C9.82935 4.29572 10.6655 4.52526 11.5181 4.99255C11.5181 4.99255 10.8705 4.3777 9.47684 3.95141L9.59161 3.82024C9.59161 3.82024 10.7147 3.79565 11.8952 4.68103C11.8952 4.68103 13.0757 6.82069 13.0757 9.46043C13.0757 9.46043 12.3789 10.6491 10.5672 10.7065Z"></path>
  </symbol>
</svg>