<svg width="102" height="102" viewBox="0 0 102 102" fill="none" xmlns="http://www.w3.org/2000/svg">
<path d="M71.625 39.5312L51.3125 31.7188C51.1563 31.7188 51 31.7188 50.6875 31.7188L30.375 39.5312C30.0625 39.6875 29.9062 40 29.9062 40.3125V70C29.9062 70.4688 30.2187 70.7812 30.6875 70.7812H71.3125C71.7812 70.7812 72.0938 70.4688 72.0938 70V40.3125C72.0938 40 71.9375 39.6875 71.625 39.5312ZM37.7188 57.8125H42.5625V62.8125H37.7188V57.8125ZM42.5625 56.25H37.7188V51.25H42.5625V56.25ZM44.125 64.2188H49.125V69.0625H44.125V64.2188ZM57.25 69.2188V63.5938C57.25 63.125 56.9375 62.8125 56.4688 62.8125H50.8438V57.0313C50.8438 56.5625 50.5312 56.25 50.0625 56.25H44.2812V50.4688C44.2812 50 43.9688 49.6875 43.5 49.6875H37.7188V46.7188H64.2812V69.0625H57.25V69.2188ZM70.5312 69.2188H65.8438V46.0938C65.8438 45.625 65.5312 45.3125 65.0625 45.3125H36.9375C36.4688 45.3125 36.1562 45.625 36.1562 46.0938V69.2188H31.4688V40.7812L51 33.2812L70.5312 40.7812V69.2188ZM45.2188 41.25H56.7813C57.25 41.25 57.5625 41.5625 57.5625 42.0313C57.5625 42.5 57.25 42.8125 56.7813 42.8125H45.2188C44.75 42.8125 44.4375 42.5 44.4375 42.0313C44.4375 41.5625 44.75 41.25 45.2188 41.25ZM48.6562 37.6563H53.3438C53.8125 37.6563 54.125 37.9688 54.125 38.4375C54.125 38.9063 53.8125 39.2188 53.3438 39.2188H48.6562C48.1875 39.2188 47.875 38.9063 47.875 38.4375C47.875 38.125 48.1875 37.6563 48.6562 37.6563Z" fill="black"/>
<circle cx="51" cy="51" r="50" stroke="black"/>
</svg>
